<svg xmlns="http://www.w3.org/2000/svg" xmlns:xlink="http://www.w3.org/1999/xlink" version="1.1" viewBox="10 2 1880 328.5" width="1880" height="328.5" data-theme="light"><defs><style>@font-face { font-family: Virgil; } text { font-family: Virgil, "Comic Sans MS", cursive, sans-serif; }</style><marker id="ah-end-arrow0" orient="auto" markerWidth="10" markerHeight="7" refX="9" refY="3.5"><polygon points="0 0, 10 3.5, 0 7" fill="#1e40af"/></marker><marker id="ah-end-arrow1" orient="auto" markerWidth="10" markerHeight="7" refX="9" refY="3.5"><polygon points="0 0, 10 3.5, 0 7" fill="#15803d"/></marker><marker id="ah-end-arrow2" orient="auto" markerWidth="10" markerHeight="7" refX="9" refY="3.5"><polygon points="0 0, 10 3.5, 0 7" fill="#15803d"/></marker><marker id="ah-end-arrow3" orient="auto" markerWidth="10" markerHeight="7" refX="9" refY="3.5"><polygon points="0 0, 10 3.5, 0 7" fill="#15803d"/></marker><marker id="ah-end-arrow4" orient="auto" markerWidth="10" markerHeight="7" refX="9" refY="3.5"><polygon points="0 0, 10 3.5, 0 7" fill="#15803d"/></marker><marker id="ah-end-arrow5" orient="auto" markerWidth="10" markerHeight="7" refX="9" refY="3.5"><polygon points="0 0, 10 3.5, 0 7" fill="#15803d"/></marker><marker id="ah-end-arrow6" orient="auto" markerWidth="10" markerHeight="7" refX="9" refY="3.5"><polygon points="0 0, 10 3.5, 0 7" fill="#047857"/></marker><marker id="ah-end-arrow7" orient="auto" markerWidth="10" markerHeight="7" refX="9" refY="3.5"><polygon points="0 0, 10 3.5, 0 7" fill="#dc2626"/></marker><marker id="ah-end-arrow8" orient="auto" markerWidth="10" markerHeight="7" refX="9" refY="3.5"><polygon points="0 0, 10 3.5, 0 7" fill="#dc2626"/></marker><marker id="ah-end-arrow9" orient="auto" markerWidth="10" markerHeight="7" refX="9" refY="3.5"><polygon points="0 0, 10 3.5, 0 7" fill="#c2410c"/></marker></defs><rect x="10" y="2" width="1880" height="328.5" fill="#ffffff"/><text font-size="22" font-family="Virgil, &quot;Comic Sans MS&quot;, cursive, sans-serif" text-anchor="start" fill="#1e293b" x="20"><tspan x="20" dy="21.85" y="33.85">Order Lifecycle — State Diagram</tspan></text><g><g><path d="M80 181 C80 182.15765451777955, 79.89717965762448 183.3328964089197, 79.69615506024417 184.47296355333862 C79.49513046286386 185.61303069775752, 79.18979357981073 186.7525634587365, 78.79385241571816 187.8404028665134 C78.3979112516256 188.92824227429028, 77.89933533457855 189.9974417787971, 77.32050807568878 191 C76.741680816799 192.0025582212029, 76.06501484270589 192.96893738333418, 75.32088886237956 193.85575219373078 C74.57676288205323 194.74256700412738, 73.74256700412738 195.57676288205323, 72.85575219373078 196.32088886237955 C71.96893738333418 197.06501484270586, 71.0025582212029 197.741680816799, 70 198.32050807568876 C68.9974417787971 198.89933533457852, 67.92824227429027 199.3979112516256, 66.84040286651337 199.79385241571816 C65.75256345873647 200.18979357981073, 64.61303069775751 200.49513046286387, 63.47296355333861 200.69615506024417 C62.332896408919716 200.89717965762446, 61.157654517779534 201, 60 201 C58.842345482220466 201, 57.667103591080284 200.89717965762446, 56.52703644666139 200.69615506024417 C55.3869693022425 200.49513046286387, 54.247436541263525 200.18979357981073, 53.15959713348663 199.79385241571816 C52.07175772570973 199.3979112516256, 51.002558221202904 198.89933533457852, 50 198.32050807568876 C48.997441778797096 197.741680816799, 48.031062616665814 197.0650148427059, 47.14424780626922 196.32088886237958 C46.25743299587263 195.57676288205326, 45.423237117946776 194.7425670041274, 44.679111137620446 193.8557521937308 C43.934985157294115 192.9689373833342, 43.258319183201 192.00255822120295, 42.679491924311236 191.00000000000003 C42.10066466542147 189.9974417787971, 41.6020887483744 188.92824227429028, 41.20614758428184 187.8404028665134 C40.810206420189274 186.7525634587365, 40.50486953713615 185.61303069775755, 40.30384493975585 184.47296355333864 C40.102820342375544 183.33289640891974, 40 182.15765451777958, 40 181.00000000000003 C40 179.84234548222048, 40.10282034237553 178.66710359108032, 40.303844939755834 177.5270364466614 C40.50486953713614 176.3869693022425, 40.81020642018926 175.24743654126357, 41.20614758428182 174.15959713348667 C41.602088748374385 173.07175772570977, 42.10066466542144 172.00255822120295, 42.67949192431121 171.00000000000003 C43.258319183200975 169.9974417787971, 43.93498515729408 169.03106261666585, 44.67911113762041 168.14424780626925 C45.42323711794674 167.25743299587265, 46.257432995872584 166.42323711794677, 47.14424780626918 165.67911113762045 C48.03106261666577 164.93498515729414, 48.99744177879707 164.25831918320102, 49.999999999999964 163.67949192431126 C51.00255822120286 163.1006646654215, 52.07175772570968 162.6020887483744, 53.15959713348658 162.20614758428184 C54.247436541263475 161.81020642018927, 55.38696930224245 161.50486953713613, 56.52703644666134 161.30384493975583 C57.667103591080235 161.10282034237554, 58.84234548222041 161, 59.99999999999994 161 C61.15765451777948 161, 62.33289640891965 161.10282034237554, 63.472963553338545 161.30384493975583 C64.61303069775744 161.50486953713613, 65.75256345873642 161.81020642018925, 66.84040286651332 162.2061475842818 C67.92824227429021 162.60208874837437, 68.99744177879704 163.10066466542145, 69.99999999999994 163.6794919243112 C71.00255822120285 164.25831918320097, 71.96893738333412 164.93498515729408, 72.85575219373072 165.6791111376204 C73.74256700412732 166.4232371179467, 74.57676288205319 167.25743299587256, 75.32088886237952 168.14424780626916 C76.06501484270585 169.03106261666576, 76.74168081679896 169.99744177879705, 77.32050807568874 170.99999999999994 C77.89933533457851 172.00255822120283, 78.39791125162557 173.07175772570966, 78.79385241571813 174.15959713348656 C79.1897935798107 175.24743654126345, 79.49513046286383 176.3869693022424, 79.69615506024414 177.5270364466613 C79.89717965762445 178.6671035910802, 79.94935917670736 180.42117274111013, 80 180.99999999999991 C80.05064082329264 181.5788272588897, 80.05064082329264 180.4211727411102, 80 181" stroke="none" stroke-width="0" fill="#1e40af"/><path d="M80 181 C80 182.15765451777955, 79.89717965762448 183.3328964089197, 79.69615506024417 184.47296355333862 C79.49513046286386 185.61303069775752, 79.18979357981073 186.7525634587365, 78.79385241571816 187.8404028665134 C78.3979112516256 188.92824227429028, 77.89933533457855 189.9974417787971, 77.32050807568878 191 C76.741680816799 192.0025582212029, 76.06501484270589 192.96893738333418, 75.32088886237956 193.85575219373078 C74.57676288205323 194.74256700412738, 73.74256700412738 195.57676288205323, 72.85575219373078 196.32088886237955 C71.96893738333418 197.06501484270586, 71.0025582212029 197.741680816799, 70 198.32050807568876 C68.9974417787971 198.89933533457852, 67.92824227429027 199.3979112516256, 66.84040286651337 199.79385241571816 C65.75256345873647 200.18979357981073, 64.61303069775751 200.49513046286387, 63.47296355333861 200.69615506024417 C62.332896408919716 200.89717965762446, 61.157654517779534 201, 60 201 C58.842345482220466 201, 57.667103591080284 200.89717965762446, 56.52703644666139 200.69615506024417 C55.3869693022425 200.49513046286387, 54.247436541263525 200.18979357981073, 53.15959713348663 199.79385241571816 C52.07175772570973 199.3979112516256, 51.002558221202904 198.89933533457852, 50 198.32050807568876 C48.997441778797096 197.741680816799, 48.031062616665814 197.0650148427059, 47.14424780626922 196.32088886237958 C46.25743299587263 195.57676288205326, 45.423237117946776 194.7425670041274, 44.679111137620446 193.8557521937308 C43.934985157294115 192.9689373833342, 43.258319183201 192.00255822120295, 42.679491924311236 191.00000000000003 C42.10066466542147 189.9974417787971, 41.6020887483744 188.92824227429028, 41.20614758428184 187.8404028665134 C40.810206420189274 186.7525634587365, 40.50486953713615 185.61303069775755, 40.30384493975585 184.47296355333864 C40.102820342375544 183.33289640891974, 40 182.15765451777958, 40 181.00000000000003 C40 179.84234548222048, 40.10282034237553 178.66710359108032, 40.303844939755834 177.5270364466614 C40.50486953713614 176.3869693022425, 40.81020642018926 175.24743654126357, 41.20614758428182 174.15959713348667 C41.602088748374385 173.07175772570977, 42.10066466542144 172.00255822120295, 42.67949192431121 171.00000000000003 C43.258319183200975 169.9974417787971, 43.93498515729408 169.03106261666585, 44.67911113762041 168.14424780626925 C45.42323711794674 167.25743299587265, 46.257432995872584 166.42323711794677, 47.14424780626918 165.67911113762045 C48.03106261666577 164.93498515729414, 48.99744177879707 164.25831918320102, 49.999999999999964 163.67949192431126 C51.00255822120286 163.1006646654215, 52.07175772570968 162.6020887483744, 53.15959713348658 162.20614758428184 C54.247436541263475 161.81020642018927, 55.38696930224245 161.50486953713613, 56.52703644666134 161.30384493975583 C57.667103591080235 161.10282034237554, 58.84234548222041 161, 59.99999999999994 161 C61.15765451777948 161, 62.33289640891965 161.10282034237554, 63.472963553338545 161.30384493975583 C64.61303069775744 161.50486953713613, 65.75256345873642 161.81020642018925, 66.84040286651332 162.2061475842818 C67.92824227429021 162.60208874837437, 68.99744177879704 163.10066466542145, 69.99999999999994 163.6794919243112 C71.00255822120285 164.25831918320097, 71.96893738333412 164.93498515729408, 72.85575219373072 165.6791111376204 C73.74256700412732 166.4232371179467, 74.57676288205319 167.25743299587256, 75.32088886237952 168.14424780626916 C76.06501484270585 169.03106261666576, 76.74168081679896 169.99744177879705, 77.32050807568874 170.99999999999994 C77.89933533457851 172.00255822120283, 78.39791125162557 173.07175772570966, 78.79385241571813 174.15959713348656 C79.1897935798107 175.24743654126345, 79.49513046286383 176.3869693022424, 79.69615506024414 177.5270364466613 C79.89717965762445 178.6671035910802, 79.94935917670736 180.42117274111013, 80 180.99999999999991 C80.05064082329264 181.5788272588897, 80.05064082329264 180.4211727411102, 80 181" stroke="#1e40af" stroke-width="2" fill="none"/></g><text font-size="14" font-family="Virgil, &quot;Comic Sans MS&quot;, cursive, sans-serif" text-anchor="middle" fill="#1e3a8a" x="60" opacity="null"><tspan x="60" dy="11.199999999999989" y="183.45">●</tspan></text></g><g><g><path d="M185.6 153 C231.87035778552294 153, 278.14071557104586 153, 334.4 153 C338.1333333333333 153, 340 154.86666666666667, 340 158.6 C340 175.01974465966225, 340 191.4394893193245, 340 203.4 C340 207.13333333333333, 338.1333333333333 209, 334.4 209 C275.37128010243174 209, 216.34256020486356 209, 185.6 209 C181.86666666666667 209, 180 207.13333333333333, 180 203.4 C180 189.26731943488122, 180 175.13463886976243, 180 158.6 C180 154.86666666666667, 181.86666666666667 153, 185.6 153 C185.6 153, 185.6 153, 185.6 153" stroke="none" stroke-width="0" fill="#86efac"/><path d="M185.6 153 C222.05344741374253 153, 258.5068948274851 153, 334.4 153 M185.6 153 C222.35804063767193 153, 259.1160812753439 153, 334.4 153 M334.4 153 C338.1333333333333 153, 340 154.86666666666667, 340 158.6 M334.4 153 C338.1333333333333 153, 340 154.86666666666667, 340 158.6 M340 158.6 C340 170.08297233939172, 340 181.5659446787834, 340 203.4 M340 158.6 C340 172.7857378542423, 340 186.97147570848466, 340 203.4 M340 203.4 C340 207.13333333333333, 338.1333333333333 209, 334.4 209 M340 203.4 C340 207.13333333333333, 338.1333333333333 209, 334.4 209 M334.4 209 C282.1616310545802 209, 229.92326210916042 209, 185.6 209 M334.4 209 C294.36591104537246 209, 254.33182209074494 209, 185.6 209 M185.6 209 C181.86666666666667 209, 180 207.13333333333333, 180 203.4 M185.6 209 C181.86666666666667 209, 180 207.13333333333333, 180 203.4 M180 203.4 C180 185.94908012032508, 180 168.49816024065018, 180 158.6 M180 203.4 C180 192.15701681494713, 180 180.91403362989425, 180 158.6 M180 158.6 C180 154.86666666666667, 181.86666666666667 153, 185.6 153 M180 158.6 C180 154.86666666666667, 181.86666666666667 153, 185.6 153 M185.6 153 C185.6 153, 185.6 153, 185.6 153 M185.6 153 C185.6 153, 185.6 153, 185.6 153" stroke="#15803d" stroke-width="2" fill="none"/></g><text font-size="14" font-family="Virgil, &quot;Comic Sans MS&quot;, cursive, sans-serif" text-anchor="middle" fill="#14532d" x="260" opacity="null"><tspan x="260" dy="11.199999999999989" y="183.45">placed</tspan></text></g><g><g><path d="M445.6 201 C507.79127000384034 201, 569.9825400076807 201, 604.4 201 C608.1333333333333 201, 610 202.86666666666667, 610 206.6 C610 222.53738597273826, 610 238.47477194547653, 610 251.4 C610 255.13333333333333, 608.1333333333333 257, 604.4 257 C572.3519373721629 257, 540.3038747443259 257, 445.6 257 C441.8666666666667 257, 440 255.13333333333333, 440 251.4 C440 235.4993991148472, 440 219.59879822969435, 440 206.6 C440 202.86666666666667, 441.8666666666667 201, 445.6 201 C445.6 201, 445.6 201, 445.6 201" stroke="none" stroke-width="0" fill="#86efac"/><path d="M445.6 201 C484.50613146595657 201, 523.4122629319131 201, 604.4 201 M445.6 201 C498.3910607702285 201, 551.182121540457 201, 604.4 201 M604.4 201 C608.1333333333333 201, 610 202.86666666666667, 610 206.6 M604.4 201 C608.1333333333333 201, 610 202.86666666666667, 610 206.6 M610 206.6 C610 223.41735689759255, 610 240.2347137951851, 610 251.4 M610 206.6 C610 221.25884028792382, 610 235.91768057584764, 610 251.4 M610 251.4 C610 255.13333333333333, 608.1333333333333 257, 604.4 257 M610 251.4 C610 255.13333333333333, 608.1333333333333 257, 604.4 257 M604.4 257 C565.4323635501414 257, 526.4647271002829 257, 445.6 257 M604.4 257 C571.4536273496598 257, 538.5072546993196 257, 445.6 257 M445.6 257 C441.8666666666667 257, 440 255.13333333333333, 440 251.4 M445.6 257 C441.8666666666667 257, 440 255.13333333333333, 440 251.4 M440 251.4 C440 240.80493024230003, 440 230.20986048460006, 440 206.6 M440 251.4 C440 238.36517872452737, 440 225.3303574490547, 440 206.6 M440 206.6 C440 202.86666666666667, 441.8666666666667 201, 445.6 201 M440 206.6 C440 202.86666666666667, 441.8666666666667 201, 445.6 201 M445.6 201 C445.6 201, 445.6 201, 445.6 201 M445.6 201 C445.6 201, 445.6 201, 445.6 201" stroke="#15803d" stroke-width="2" fill="none"/></g><text font-size="14" font-family="Virgil, &quot;Comic Sans MS&quot;, cursive, sans-serif" text-anchor="middle" fill="#14532d" x="525" opacity="null"><tspan x="525" dy="11.199999999999989" y="231.45">payment_pending</tspan></text></g><g><g><path d="M715.6 201 C750.6733553744853 201, 785.7467107489705 201, 844.4 201 C848.1333333333333 201, 850 202.86666666666667, 850 206.6 C850 222.05502728581428, 850 237.5100545716286, 850 251.4 C850 255.13333333333333, 848.1333333333333 257, 844.4 257 C817.7474666975438 257, 791.0949333950878 257, 715.6 257 C711.8666666666667 257, 710 255.13333333333333, 710 251.4 C710 233.73147879481314, 710 216.0629575896263, 710 206.6 C710 202.86666666666667, 711.8666666666667 201, 715.6 201 C715.6 201, 715.6 201, 715.6 201" stroke="none" stroke-width="0" fill="#86efac"/><path d="M715.6 201 C747.1584227563441 201, 778.7168455126882 201, 844.4 201 M715.6 201 C743.6584331391751 201, 771.7168662783504 201, 844.4 201 M844.4 201 C848.1333333333333 201, 850 202.86666666666667, 850 206.6 M844.4 201 C848.1333333333333 201, 850 202.86666666666667, 850 206.6 M850 206.6 C850 219.79174145579339, 850 232.98348291158678, 850 251.4 M850 206.6 C850 221.7319427216053, 850 236.86388544321062, 850 251.4 M850 251.4 C850 255.13333333333333, 848.1333333333333 257, 844.4 257 M850 251.4 C850 255.13333333333333, 848.1333333333333 257, 844.4 257 M844.4 257 C800.6450982283055 257, 756.8901964566112 257, 715.6 257 M844.4 257 C799.8486693502963 257, 755.2973387005925 257, 715.6 257 M715.6 257 C711.8666666666667 257, 710 255.13333333333333, 710 251.4 M715.6 257 C711.8666666666667 257, 710 255.13333333333333, 710 251.4 M710 251.4 C710 238.70078036427498, 710 226.00156072854995, 710 206.6 M710 251.4 C710 236.57334063410758, 710 221.74668126821518, 710 206.6 M710 206.6 C710 202.86666666666667, 711.8666666666667 201, 715.6 201 M710 206.6 C710 202.86666666666667, 711.8666666666667 201, 715.6 201 M715.6 201 C715.6 201, 715.6 201, 715.6 201 M715.6 201 C715.6 201, 715.6 201, 715.6 201" stroke="#15803d" stroke-width="2" fill="none"/></g><text font-size="14" font-family="Virgil, &quot;Comic Sans MS&quot;, cursive, sans-serif" text-anchor="middle" fill="#14532d" x="780" opacity="null"><tspan x="780" dy="11.199999999999989" y="231.45">paid</tspan></text></g><g><g><path d="M955.6 211 C1008.1241139611602 211, 1060.6482279223205 211, 1104.4 211 C1108.1333333333334 211, 1110 212.86666666666667, 1110 216.6 C1110 231.5726685988903, 1110 246.54533719778058, 1110 261.4 C1110 265.1333333333333, 1108.1333333333334 267, 1104.4 267 C1072.847671803534 267, 1041.2953436070682 267, 955.6 267 C951.8666666666667 267, 950 265.1333333333333, 950 261.4 C950 250.9235584747791, 950 240.44711694955825, 950 216.6 C950 212.86666666666667, 951.8666666666667 211, 955.6 211 C955.6 211, 955.6 211, 955.6 211" stroke="none" stroke-width="0" fill="#86efac"/><path d="M955.6 211 C992.0614747342468 211, 1028.5229494684936 211, 1104.4 211 M955.6 211 C1000.7239787235857 211, 1045.8479574471712 211, 1104.4 211 M1104.4 211 C1108.1333333333334 211, 1110 212.86666666666667, 1110 216.6 M1104.4 211 C1108.1333333333334 211, 1110 212.86666666666667, 1110 216.6 M1110 216.6 C1110 226.16612601399422, 1110 235.7322520279884, 1110 261.4 M1110 216.6 C1110 232.20504515528677, 1110 247.81009031057357, 1110 261.4 M1110 261.4 C1110 265.1333333333333, 1108.1333333333334 267, 1104.4 267 M1110 261.4 C1110 265.1333333333333, 1108.1333333333334 267, 1104.4 267 M1104.4 267 C1069.5754727068545 267, 1034.7509454137087 267, 955.6 267 M1104.4 267 C1062.0931857737899 267, 1019.7863715475798 267, 955.6 267 M955.6 267 C951.8666666666667 267, 950 265.1333333333333, 950 261.4 M955.6 267 C951.8666666666667 267, 950 265.1333333333333, 950 261.4 M950 261.4 C950 246.5966304862499, 950 231.79326097249984, 950 216.6 M950 261.4 C950 244.7815025436878, 950 228.16300508737564, 950 216.6 M950 216.6 C950 212.86666666666667, 951.8666666666667 211, 955.6 211 M950 216.6 C950 212.86666666666667, 951.8666666666667 211, 955.6 211 M955.6 211 C955.6 211, 955.6 211, 955.6 211 M955.6 211 C955.6 211, 955.6 211, 955.6 211" stroke="#15803d" stroke-width="2" fill="none"/></g><text font-size="14" font-family="Virgil, &quot;Comic Sans MS&quot;, cursive, sans-serif" text-anchor="middle" fill="#14532d" x="1030" opacity="null"><tspan x="1030" dy="11.199999999999989" y="241.45">fulfillment</tspan></text></g><g><g><path d="M1215.6 211 C1248.032093213722 211, 1280.4641864274442 211, 1354.4 211 C1358.1333333333334 211, 1360 212.86666666666667, 1360 216.6 C1360 231.0903099119663, 1360 245.58061982393264, 1360 261.4 C1360 265.1333333333333, 1358.1333333333334 267, 1354.4 267 C1324.2580773008615 267, 1294.1161546017229 267, 1215.6 267 C1211.8666666666666 267, 1210 265.1333333333333, 1210 261.4 C1210 249.15563815474508, 1210 236.91127630949018, 1210 216.6 C1210 212.86666666666667, 1211.8666666666666 211, 1215.6 211 C1215.6 211, 1215.6 211, 1215.6 211" stroke="none" stroke-width="0" fill="#86efac"/><path d="M1215.6 211 C1249.6136027585715 211, 1283.627205517143 211, 1354.4 211 M1215.6 211 C1269.546023626402 211, 1323.492047252804 211, 1354.4 211 M1354.4 211 C1358.1333333333334 211, 1360 212.86666666666667, 1360 216.6 M1354.4 211 C1358.1333333333334 211, 1360 212.86666666666667, 1360 216.6 M1360 216.6 C1360 231.50051057219503, 1360 246.40102114439009, 1360 261.4 M1360 216.6 C1360 232.67814758896827, 1360 248.75629517793652, 1360 261.4 M1360 261.4 C1360 265.1333333333333, 1358.1333333333334 267, 1354.4 267 M1360 261.4 C1360 265.1333333333333, 1358.1333333333334 267, 1354.4 267 M1354.4 267 C1308.8236829221994 267, 1263.2473658443987 267, 1215.6 267 M1354.4 267 C1323.4830562018603 267, 1292.5661124037206 267, 1215.6 267 M1215.6 267 C1211.8666666666666 267, 1210 265.1333333333333, 1210 261.4 M1215.6 267 C1211.8666666666666 267, 1210 265.1333333333333, 1210 261.4 M1210 261.4 C1210 244.49248060822487, 1210 227.58496121644973, 1210 216.6 M1210 261.4 C1210 251.94966445326804, 1210 242.49932890653608, 1210 216.6 M1210 216.6 C1210 212.86666666666667, 1211.8666666666666 211, 1215.6 211 M1210 216.6 C1210 212.86666666666667, 1211.8666666666666 211, 1215.6 211 M1215.6 211 C1215.6 211, 1215.6 211, 1215.6 211 M1215.6 211 C1215.6 211, 1215.6 211, 1215.6 211" stroke="#15803d" stroke-width="2" fill="none"/></g><text font-size="14" font-family="Virgil, &quot;Comic Sans MS&quot;, cursive, sans-serif" text-anchor="middle" fill="#14532d" x="1285" opacity="null"><tspan x="1285" dy="11.199999999999989" y="241.45">shipped</tspan></text></g><g><g><path d="M1465.6 211 C1512.3732847449182 211, 1559.1465694898368 211, 1614.4 211 C1618.1333333333334 211, 1620 212.86666666666667, 1620 216.6 C1620 230.60795122504234, 1620 244.61590245008466, 1620 261.4 C1620 265.1333333333333, 1618.1333333333334 267, 1614.4 267 C1581.3252662709356 267, 1548.250532541871 267, 1465.6 267 C1461.8666666666666 267, 1460 265.1333333333333, 1460 261.4 C1460 247.38771783471105, 1460 233.37543566942213, 1460 216.6 C1460 212.86666666666667, 1461.8666666666666 211, 1465.6 211 C1465.6 211, 1465.6 211, 1465.6 211" stroke="none" stroke-width="0" fill="#a7f3d0"/><path d="M1465.6 211 C1502.0668262812494 211, 1538.5336525624991 211, 1614.4 211 M1465.6 211 C1506.3812707808613 211, 1547.1625415617227 211, 1614.4 211 M1614.4 211 C1618.1333333333334 211, 1620 212.86666666666667, 1620 216.6 M1614.4 211 C1618.1333333333334 211, 1620 212.86666666666667, 1620 216.6 M1620 216.6 C1620 227.87489513039588, 1620 239.14979026079178, 1620 261.4 M1620 216.6 C1620 233.15125002264975, 1620 249.7025000452995, 1620 261.4 M1620 261.4 C1620 265.1333333333333, 1618.1333333333334 267, 1614.4 267 M1620 261.4 C1620 265.1333333333333, 1618.1333333333334 267, 1614.4 267 M1614.4 267 C1581.2647004750372 267, 1548.1294009500741 267, 1465.6 267 M1614.4 267 C1560.658035592735 267, 1506.9160711854695 267, 1465.6 267 M1465.6 267 C1461.8666666666666 267, 1460 265.1333333333333, 1460 261.4 M1465.6 267 C1461.8666666666666 267, 1460 265.1333333333333, 1460 261.4 M1460 261.4 C1460 251.3483307301998, 1460 241.2966614603996, 1460 216.6 M1460 261.4 C1460 250.15782636284825, 1460 238.91565272569653, 1460 216.6 M1460 216.6 C1460 212.86666666666667, 1461.8666666666666 211, 1465.6 211 M1460 216.6 C1460 212.86666666666667, 1461.8666666666666 211, 1465.6 211 M1465.6 211 C1465.6 211, 1465.6 211, 1465.6 211 M1465.6 211 C1465.6 211, 1465.6 211, 1465.6 211" stroke="#047857" stroke-width="2" fill="none"/></g><text font-size="14" font-family="Virgil, &quot;Comic Sans MS&quot;, cursive, sans-serif" text-anchor="middle" fill="#064e3b" x="1540" opacity="null"><tspan x="1540" dy="11.199999999999989" y="241.45">delivered</tspan></text></g><g><g><path d="M1825 295.5 C1825 296.9470681472244, 1824.8714745720306 298.41612051114964, 1824.6201938253053 299.84120444167326 C1824.36891307858 301.26628837219687, 1823.9872419747635 302.6907043234206, 1823.4923155196477 304.05050358314173 C1822.997389064532 305.41030284286285, 1822.3741691682233 306.7468022234964, 1821.650635094611 308 C1820.9271010209989 309.2531977765036, 1820.0812685533824 310.46117172916775, 1819.1511110779745 311.56969024216346 C1818.2209536025666 312.6782087551592, 1817.1782087551592 313.72095360256657, 1816.0696902421635 314.65111107797446 C1814.9611717291677 315.58126855338236, 1813.7531977765036 316.42710102099875, 1812.5 317.15063509461095 C1811.2468022234964 317.87416916822315, 1809.9103028428628 318.497389064532, 1808.5505035831418 318.9923155196477 C1807.1907043234207 319.48724197476344, 1805.7662883721969 319.8689130785798, 1804.3412044416732 320.1201938253052 C1802.9161205111495 320.3714745720306, 1801.4470681472244 320.5, 1800 320.5 C1798.5529318527756 320.5, 1797.0838794888505 320.3714745720306, 1795.6587955583268 320.1201938253052 C1794.2337116278031 319.8689130785798, 1792.8092956765793 319.48724197476344, 1791.4494964168582 318.9923155196477 C1790.0896971571372 318.497389064532, 1788.7531977765036 317.87416916822315, 1787.5 317.15063509461095 C1786.2468022234964 316.42710102099875, 1785.0388282708323 315.58126855338236, 1783.9303097578365 314.65111107797446 C1782.8217912448408 313.72095360256657, 1781.7790463974334 312.6782087551593, 1780.8488889220255 311.5696902421635 C1779.9187314466176 310.46117172916775, 1779.0728989790011 309.2531977765036, 1778.349364905389 308 C1777.6258308317767 306.7468022234964, 1777.002610935468 305.41030284286285, 1776.5076844803523 304.05050358314173 C1776.0127580252365 302.6907043234206, 1775.63108692142 301.2662883721969, 1775.3798061746947 299.8412044416733 C1775.1285254279694 298.4161205111497, 1775 296.94706814722446, 1775 295.50000000000006 C1775 294.05293185277566, 1775.1285254279694 292.5838794888504, 1775.3798061746947 291.1587955583268 C1775.63108692142 289.7337116278032, 1776.0127580252365 288.30929567657944, 1776.5076844803523 286.9494964168583 C1777.002610935468 285.5896971571372, 1777.6258308317767 284.25319777650367, 1778.349364905389 283.00000000000006 C1779.0728989790011 281.74680222349645, 1779.9187314466176 280.53882827083225, 1780.8488889220255 279.43030975783654 C1781.7790463974334 278.3217912448408, 1782.8217912448408 277.2790463974335, 1783.9303097578365 276.3488889220256 C1785.0388282708323 275.4187314466177, 1786.2468022234964 274.57289897900125, 1787.5 273.84936490538905 C1788.7531977765036 273.12583083177685, 1790.0896971571372 272.502610935468, 1791.4494964168582 272.0076844803523 C1792.8092956765793 271.51275802523656, 1794.233711627803 271.1310869214202, 1795.6587955583266 270.8798061746948 C1797.0838794888502 270.6285254279694, 1798.5529318527756 270.5, 1800 270.5 C1801.4470681472244 270.5, 1802.9161205111495 270.6285254279694, 1804.3412044416732 270.8798061746948 C1805.7662883721969 271.1310869214202, 1807.1907043234205 271.51275802523656, 1808.5505035831416 272.0076844803523 C1809.9103028428626 272.502610935468, 1811.2468022234964 273.1258308317768, 1812.5 273.849364905389 C1813.7531977765036 274.5728989790012, 1814.9611717291677 275.4187314466176, 1816.0696902421635 276.3488889220255 C1817.1782087551592 277.2790463974334, 1818.2209536025664 278.3217912448407, 1819.1511110779743 279.4303097578364 C1820.0812685533822 280.53882827083214, 1820.9271010209986 281.7468022234963, 1821.6506350946108 282.9999999999999 C1822.374169168223 284.2531977765035, 1822.997389064532 285.5896971571371, 1823.4923155196477 286.9494964168582 C1823.9872419747635 288.3092956765793, 1824.36891307858 289.733711627803, 1824.6201938253053 291.15879555832663 C1824.8714745720306 292.58387948885024, 1824.9366989708842 294.7764659263877, 1825 295.4999999999999 C1825.0633010291158 296.2235340736121, 1825.0633010291158 294.7764659263878, 1825 295.5" stroke="none" stroke-width="0" fill="#047857"/><path d="M1825 295.5 C1825 296.9470681472244, 1824.8714745720306 298.41612051114964, 1824.6201938253053 299.84120444167326 C1824.36891307858 301.26628837219687, 1823.9872419747635 302.6907043234206, 1823.4923155196477 304.05050358314173 C1822.997389064532 305.41030284286285, 1822.3741691682233 306.7468022234964, 1821.650635094611 308 C1820.9271010209989 309.2531977765036, 1820.0812685533824 310.46117172916775, 1819.1511110779745 311.56969024216346 C1818.2209536025666 312.6782087551592, 1817.1782087551592 313.72095360256657, 1816.0696902421635 314.65111107797446 C1814.9611717291677 315.58126855338236, 1813.7531977765036 316.42710102099875, 1812.5 317.15063509461095 C1811.2468022234964 317.87416916822315, 1809.9103028428628 318.497389064532, 1808.5505035831418 318.9923155196477 C1807.1907043234207 319.48724197476344, 1805.7662883721969 319.8689130785798, 1804.3412044416732 320.1201938253052 C1802.9161205111495 320.3714745720306, 1801.4470681472244 320.5, 1800 320.5 C1798.5529318527756 320.5, 1797.0838794888505 320.3714745720306, 1795.6587955583268 320.1201938253052 C1794.2337116278031 319.8689130785798, 1792.8092956765793 319.48724197476344, 1791.4494964168582 318.9923155196477 C1790.0896971571372 318.497389064532, 1788.7531977765036 317.87416916822315, 1787.5 317.15063509461095 C1786.2468022234964 316.42710102099875, 1785.0388282708323 315.58126855338236, 1783.9303097578365 314.65111107797446 C1782.8217912448408 313.72095360256657, 1781.7790463974334 312.6782087551593, 1780.8488889220255 311.5696902421635 C1779.9187314466176 310.46117172916775, 1779.0728989790011 309.2531977765036, 1778.349364905389 308 C1777.6258308317767 306.7468022234964, 1777.002610935468 305.41030284286285, 1776.5076844803523 304.05050358314173 C1776.0127580252365 302.6907043234206, 1775.63108692142 301.2662883721969, 1775.3798061746947 299.8412044416733 C1775.1285254279694 298.4161205111497, 1775 296.94706814722446, 1775 295.50000000000006 C1775 294.05293185277566, 1775.1285254279694 292.5838794888504, 1775.3798061746947 291.1587955583268 C1775.63108692142 289.7337116278032, 1776.0127580252365 288.30929567657944, 1776.5076844803523 286.9494964168583 C1777.002610935468 285.5896971571372, 1777.6258308317767 284.25319777650367, 1778.349364905389 283.00000000000006 C1779.0728989790011 281.74680222349645, 1779.9187314466176 280.53882827083225, 1780.8488889220255 279.43030975783654 C1781.7790463974334 278.3217912448408, 1782.8217912448408 277.2790463974335, 1783.9303097578365 276.3488889220256 C1785.0388282708323 275.4187314466177, 1786.2468022234964 274.57289897900125, 1787.5 273.84936490538905 C1788.7531977765036 273.12583083177685, 1790.0896971571372 272.502610935468, 1791.4494964168582 272.0076844803523 C1792.8092956765793 271.51275802523656, 1794.233711627803 271.1310869214202, 1795.6587955583266 270.8798061746948 C1797.0838794888502 270.6285254279694, 1798.5529318527756 270.5, 1800 270.5 C1801.4470681472244 270.5, 1802.9161205111495 270.6285254279694, 1804.3412044416732 270.8798061746948 C1805.7662883721969 271.1310869214202, 1807.1907043234205 271.51275802523656, 1808.5505035831416 272.0076844803523 C1809.9103028428626 272.502610935468, 1811.2468022234964 273.1258308317768, 1812.5 273.849364905389 C1813.7531977765036 274.5728989790012, 1814.9611717291677 275.4187314466176, 1816.0696902421635 276.3488889220255 C1817.1782087551592 277.2790463974334, 1818.2209536025664 278.3217912448407, 1819.1511110779743 279.4303097578364 C1820.0812685533822 280.53882827083214, 1820.9271010209986 281.7468022234963, 1821.6506350946108 282.9999999999999 C1822.374169168223 284.2531977765035, 1822.997389064532 285.5896971571371, 1823.4923155196477 286.9494964168582 C1823.9872419747635 288.3092956765793, 1824.36891307858 289.733711627803, 1824.6201938253053 291.15879555832663 C1824.8714745720306 292.58387948885024, 1824.9366989708842 294.7764659263877, 1825 295.4999999999999 C1825.0633010291158 296.2235340736121, 1825.0633010291158 294.7764659263878, 1825 295.5" stroke="#047857" stroke-width="2" fill="none"/></g><text font-size="14" font-family="Virgil, &quot;Comic Sans MS&quot;, cursive, sans-serif" text-anchor="middle" fill="#064e3b" x="1800" opacity="null"><tspan x="1800" dy="11.199999999999989" y="297.95">◉</tspan></text></g><g><g><path d="M955.6 95 C996.6224555286766 95, 1037.644911057353 95, 1104.4 95 C1108.1333333333334 95, 1110 96.86666666666666, 1110 100.6 C1110 113.64323385119438, 1110 126.68646770238877, 1110 145.4 C1110 149.13333333333333, 1108.1333333333334 151, 1104.4 151 C1069.8028607383371 151, 1035.2057214766742 151, 955.6 151 C951.8666666666667 151, 950 149.13333333333333, 950 145.4 C950 127.85187719464302, 950 110.30375438928604, 950 100.6 C950 96.86666666666666, 951.8666666666667 95, 955.6 95 C955.6 95, 955.6 95, 955.6 95" stroke="none" stroke-width="0" fill="#fecaca"/><path d="M955.6 95 C992.0721778282524 95, 1028.5443556565046 95, 1104.4 95 M955.6 95 C992.0385628381372 95, 1028.4771256762745 95, 1104.4 95 M1104.4 95 C1108.1333333333334 95, 1110 96.86666666666666, 1110 100.6 M1104.4 95 C1108.1333333333334 95, 1110 96.86666666666666, 1110 100.6 M1110 100.6 C1110 113.58366424679755, 1110 126.56732849359513, 1110 145.4 M1110 100.6 C1110 118.09745489001274, 1110 135.5949097800255, 1110 145.4 M1110 145.4 C1110 149.13333333333333, 1108.1333333333334 151, 1104.4 151 M1110 145.4 C1110 149.13333333333333, 1108.1333333333334 151, 1104.4 151 M1104.4 151 C1072.95392824322 151, 1041.5078564864398 151, 955.6 151 M1104.4 151 C1068.9828854116797 151, 1033.5657708233596 151, 955.6 151 M955.6 151 C951.8666666666667 151, 950 149.13333333333333, 950 145.4 M955.6 151 C951.8666666666667 151, 950 149.13333333333333, 950 145.4 M950 145.4 C950 131.1400309741497, 950 116.88006194829941, 950 100.6 M950 145.4 C950 130.57415018200874, 950 115.74830036401748, 950 100.6 M950 100.6 C950 96.86666666666666, 951.8666666666667 95, 955.6 95 M950 100.6 C950 96.86666666666666, 951.8666666666667 95, 955.6 95 M955.6 95 C955.6 95, 955.6 95, 955.6 95 M955.6 95 C955.6 95, 955.6 95, 955.6 95" stroke="#b91c1c" stroke-width="2" fill="none"/></g><text font-size="14" font-family="Virgil, &quot;Comic Sans MS&quot;, cursive, sans-serif" text-anchor="middle" fill="#7f1d1d" x="1030" opacity="null"><tspan x="1030" dy="11.200000000000003" y="125.45">cancelled</tspan></text></g><g><g><path d="M1725.6 154.5 C1778.6270409205556 154.5, 1831.6540818411113 154.5, 1874.4 154.5 C1878.1333333333334 154.5, 1880 156.36666666666667, 1880 160.1 C1880 172.6608751642704, 1880 185.2217503285408, 1880 204.9 C1880 208.63333333333333, 1878.1333333333334 210.5, 1874.4 210.5 C1839.041657972038 210.5, 1803.6833159440755 210.5, 1725.6 210.5 C1721.8666666666666 210.5, 1720 208.63333333333333, 1720 204.9 C1720 194.543956874609, 1720 184.18791374921798, 1720 160.1 C1720 156.36666666666667, 1721.8666666666666 154.5, 1725.6 154.5 C1725.6 154.5, 1725.6 154.5, 1725.6 154.5" stroke="none" stroke-width="0" fill="#fed7aa"/><path d="M1725.6 154.5 C1762.0748536017536 154.5, 1798.5497072035075 154.5, 1874.4 154.5 M1725.6 154.5 C1774.747208866775 154.5, 1823.8944177335502 154.5, 1874.4 154.5 M1874.4 154.5 C1878.1333333333334 154.5, 1880 156.36666666666667, 1880 160.1 M1874.4 154.5 C1878.1333333333334 154.5, 1880 156.36666666666667, 1880 160.1 M1880 160.1 C1880 169.45804880499838, 1880 178.8160976099968, 1880 204.9 M1880 160.1 C1880 169.11055732369422, 1880 178.12111464738845, 1880 204.9 M1880 204.9 C1880 208.63333333333333, 1878.1333333333334 210.5, 1874.4 210.5 M1880 204.9 C1880 208.63333333333333, 1878.1333333333334 210.5, 1874.4 210.5 M1874.4 210.5 C1828.9185421273112 210.5, 1783.4370842546225 210.5, 1725.6 210.5 M1874.4 210.5 C1818.3853103211522 210.5, 1762.3706206423044 210.5, 1725.6 210.5 M1725.6 210.5 C1721.8666666666666 210.5, 1720 208.63333333333333, 1720 204.9 M1725.6 210.5 C1721.8666666666666 210.5, 1720 208.63333333333333, 1720 204.9 M1720 204.9 C1720 188.53588109612465, 1720 172.1717621922493, 1720 160.1 M1720 204.9 C1720 188.28231209158898, 1720 171.66462418317795, 1720 160.1 M1720 160.1 C1720 156.36666666666667, 1721.8666666666666 154.5, 1725.6 154.5 M1720 160.1 C1720 156.36666666666667, 1721.8666666666666 154.5, 1725.6 154.5 M1725.6 154.5 C1725.6 154.5, 1725.6 154.5, 1725.6 154.5 M1725.6 154.5 C1725.6 154.5, 1725.6 154.5, 1725.6 154.5" stroke="#c2410c" stroke-width="2" fill="none"/></g><text font-size="14" font-family="Virgil, &quot;Comic Sans MS&quot;, cursive, sans-serif" text-anchor="middle" fill="#7c2d12" x="1800" opacity="null"><tspan x="1800" dy="11.199999999999989" y="184.95">refunded</tspan></text></g><text font-size="11" font-family="Virgil, &quot;Comic Sans MS&quot;, cursive, sans-serif" text-anchor="middle" fill="#1e40af" x="130"><tspan x="130" dy="10.925000000000011" y="162.925">new order</tspan></text><text font-size="11" font-family="Virgil, &quot;Comic Sans MS&quot;, cursive, sans-serif" text-anchor="middle" fill="#15803d" x="396.92748165518316"><tspan x="396.92748165518316" dy="10.925000000000011" y="212.16307051721225">checkout</tspan></text><text font-size="11" font-family="Virgil, &quot;Comic Sans MS&quot;, cursive, sans-serif" text-anchor="middle" fill="#15803d" x="660"><tspan x="660" dy="10.925000000000011" y="210.925">payment ok</tspan></text><text font-size="11" font-family="Virgil, &quot;Comic Sans MS&quot;, cursive, sans-serif" text-anchor="middle" fill="#15803d" x="901.6609095970748"><tspan x="901.6609095970748" dy="10.925000000000011" y="220.99408483510243">confirmed</tspan></text><text font-size="11" font-family="Virgil, &quot;Comic Sans MS&quot;, cursive, sans-serif" text-anchor="middle" fill="#15803d" x="1160"><tspan x="1160" dy="10.925000000000011" y="220.925">dispatched</tspan></text><text font-size="11" font-family="Virgil, &quot;Comic Sans MS&quot;, cursive, sans-serif" text-anchor="middle" fill="#15803d" x="1410"><tspan x="1410" dy="10.925000000000011" y="220.925">delivered</tspan></text><text font-size="11" font-family="Virgil, &quot;Comic Sans MS&quot;, cursive, sans-serif" text-anchor="middle" fill="#dc2626" x="660"><tspan x="660" dy="10.924999999999997" y="94.925">cancel</tspan></text><text font-size="11" font-family="Virgil, &quot;Comic Sans MS&quot;, cursive, sans-serif" text-anchor="middle" fill="#dc2626" x="891.2966267891945"><tspan x="891.2966267891945" dy="10.925000000000011" y="154.91802094316114">cancel</tspan></text><text font-size="11" font-family="Virgil, &quot;Comic Sans MS&quot;, cursive, sans-serif" text-anchor="middle" fill="#c2410c" x="1662.0280575131653"><tspan x="1662.0280575131653" dy="10.925000000000011" y="166.0824774639201">refund req.</tspan></text><g><path d="M78.63954197242856 182.33055109903216 C91.28933571465313 179.52784442249686, 105.75247250497341 180.6453577214852, 130.7224593050778 182.8331154100597 M79.1004143115133 181.09923105873168 C90.76733351498842 181.02510827500373, 102.12154481746256 180.3727151127532, 130.88141486607492 181.77700030244887 M131.58401917293668 179.1894968263805 C149.10930375941098 181.44615211430937, 167.42070971429348 182.37342264596373, 181.8805481083691 180.93773908540606 M130.27956101857126 181.6899274531752 C140.99657130986452 181.14674755651504, 152.80803922750056 180.7204267056659, 180.85728970728815 181.23146050609648" stroke="#1e40af" stroke-width="2" fill="none" marker-end="url(#ah-end-arrow0)"/></g><g><path d="M333.9019290966292 210.18609005585313 C350.7686276879286 212.64123628753796, 361.3008673801025 219.08865802082792, 391.58141401236253 228.40245741978288 M336.33908539203304 208.15762549452484 C351.82231717476003 214.43789188928528, 369.29930915546913 221.52891860894485, 390.593251053368 228.78826379589736 M389.7641694826384 228.19176310673356 C403.0387172774722 229.91097830515355, 413.6167280544837 227.35405336599797, 439.4760724586745 229.46031934395432 M389.5036051907887 228.49283122830093 C405.6771846955021 228.88809260632843, 421.26192943764227 228.01149240043014, 440.5181304254879 228.64043539576232" stroke="#15803d" stroke-width="2" fill="none" marker-end="url(#ah-end-arrow1)"/></g><g><path d="M611.4976495541632 230.0416290126741 C622.7331033591181 229.02258877176791, 635.2750795334578 230.99341217894107, 658.3737020529807 229.97179942950606 M609.9110898058861 229.216019930318 C628.8237105980515 229.80784088466316, 647.8941969145089 228.59806680772454, 660.2384205739945 229.79952728934586 M661.8776531256735 229.19402938708663 C676.9014641288668 227.37580449599773, 689.7460797280073 229.3346840860322, 711.0049301423132 229.98289960250258 M660.6609826963395 229.29573500342667 C678.291131414473 229.62943765614182, 697.6491529811174 228.3025580951944, 710.1123044770211 228.04941028542817" stroke="#15803d" stroke-width="2" fill="none" marker-end="url(#ah-end-arrow2)"/></g><g><path d="M850.9267033450305 235.7305013028284 C861.4899512244873 236.13312854131064, 873.0713470908366 235.56044126415006, 899.1993234269321 237.57447477256258 M849.3164275530726 234.1077476994445 C862.8442471280135 236.17460726020238, 876.7728709514626 237.82820946329585, 899.9169234279543 238.8441241161277 M900.024470102042 240.22962900077303 C916.7975443135947 237.87396402017524, 935.9087647348642 240.34864813939978, 948.5671211592853 240.53881319438418 M899.8516935352236 238.13197211188574 C912.9384114667773 238.40411603928854, 926.0697098579258 238.626957123292, 949.7398118618876 239.49171850842734" stroke="#15803d" stroke-width="2" fill="none" marker-end="url(#ah-end-arrow3)"/></g><g><path d="M1110.3557571358979 239.75270692631602 C1124.176871003583 240.51733312103897, 1134.797686561942 239.34146663639694, 1160.0249448008835 239.11048344895244 M1110.721765300259 239.33280880190432 C1126.8800876811147 238.5905734943226, 1145.6668490115553 238.82341850269586, 1159.5954262819141 239.82205427624285 M1158.1712870784104 237.19856194779277 C1170.6936244983226 239.30545687768608, 1182.0714497417212 238.2959455261007, 1210.1293121762574 237.0280601195991 M1159.0424043741077 238.90154255367815 C1175.5856915190816 239.1121277557686, 1192.4902667347342 238.8846894847229, 1209.367319246754 238.86736006475985" stroke="#15803d" stroke-width="2" fill="none" marker-end="url(#ah-end-arrow4)"/></g><g><path d="M1359.7848109267652 239.608245883137 C1372.8987548258156 240.7647052956745, 1382.5589900761843 240.01549386512488, 1410.850566174835 240.67982545867562 M1360.1271030474454 238.39120323769748 C1372.9082762226462 238.98193979915231, 1384.5531750600785 238.93609435018152, 1409.273929135874 238.83331776969135 M1410.3181040547788 238.20082822814584 C1424.5897046830505 239.77028306853026, 1442.234134748578 239.27657624613494, 1461.6915031932294 237.55064037814736 M1410.2331152129918 239.7044463288039 C1430.2329715713859 239.853472805582, 1448.9108236115426 239.17575517948717, 1460.9948266316205 238.2763349544257" stroke="#15803d" stroke-width="2" fill="none" marker-end="url(#ah-end-arrow5)"/></g><g><path d="M1603.6386434786946 267.46378483995795 C1620.1202356245642 271.855191391673, 1636.645830826712 278.5223335667178, 1671.7009663098484 294.7491674683988 M1603.9572195556939 267.44959767349064 C1626.2176191495446 275.62386441709475, 1647.8396918155338 284.6514140982553, 1670.9772107508957 296.34458126313984 M1668.4896997922092 295.7030945084989 C1709.3124052575781 298.23750245915727, 1750.0252817739724 298.259600165952, 1774.2784729712635 294.5732206366956 M1669.448604812938 295.00735010392964 C1697.846753704454 293.5867429635488, 1727.2396058888166 294.4587459824048, 1775.647112777549 296.18530984409153" stroke="#047857" stroke-width="2" fill="none" marker-end="url(#ah-end-arrow6)"/></g><g><path d="M314.45780337777205 151.39155431836843 C331.3250696682207 144.49888682926073, 350.04386611271866 132.57919510269537, 390.118410000468 113.0338384732604 M313.7645214329309 153.97879489138722 C341.0586949218831 137.8638281958364, 370.8182491673923 123.56606155505403, 389.82109518151947 113.35021300986409 M391.5677412840373 113.70422764867544 C420.5869294962681 113.85617281179876, 447.75495956640907 112.13617278318853, 523.0642014833934 114.33451076596975 M390.04859323602386 112.90880199149251 C417.9523359498776 112.68482670430095, 447.00913576211997 113.33169004563243, 524.4654994736261 112.38979728892446 M526.6360303255565 114.08455082029104 C578.0986626109875 110.42610257249325, 630.0443652699537 110.2195989428088, 659.4744476171977 112.3256356343627 M525.6107526550836 112.90611942484975 C564.1846863589085 112.97181468252093, 603.1097972783095 113.86846058610827, 660.375173998887 113.28880615904927 M658.9871333929545 113.18071719259024 C706.9742568972356 110.51893032491208, 756.3802417906768 110.45800317227841, 780.2751737925059 112.17884393781424 M659.4196276197977 112.10954113677144 C708.5439582447357 111.70577257499099, 755.3543049524374 113.42483287677169, 780.4054654369897 113.48681481555104 M779.4845758768565 113.22685762494802 C803.1293632033116 113.13490847051143, 827.9803654345519 114.60945037305355, 900.6814678999431 112.40170403569937 M779.8618148098535 112.92739232257009 C813.1172580103225 113.00170932635665, 847.4052749107427 113.9244096122682, 899.2046892176218 112.81792970374227 M899.2809456678874 111.7930404767394 C910.2783754039875 112.77828280046582, 921.4024718236498 114.05419598661364, 949.4474803301341 118.38772178739309 M900.1168796549387 113.16252942755818 C916.7843631260118 113.39419279068709, 933.7167410939953 116.39984825454653, 949.0891295204706 116.43578851893544" stroke="#dc2626" stroke-width="2" fill="none" stroke-dasharray="8,4" marker-end="url(#ah-end-arrow7)"/></g><g><path d="M838.2884798866921 199.2470932751894 C854.6342878603601 195.00592348139733, 868.8609549475127 185.96496305774897, 900.9456540924722 172.6031804829836 M837.5714818981701 201.03718932718039 C853.0978627942168 194.36454005075245, 868.988787330132 186.9343273071721, 899.501220753532 170.3614765033126 M899.7161809784585 172.7064939290285 C913.41452666026 166.24910349022596, 929.8867082558984 159.3803251869604, 953.7280152184182 152.857091024518 M899.2409267929607 171.71170576661825 C916.1180498885775 165.5914795249179, 930.3854671143407 160.1472190021947, 953.1946295765454 151.7987721785903" stroke="#dc2626" stroke-width="2" fill="none" stroke-dasharray="8,4" marker-end="url(#ah-end-arrow8)"/></g><g><path d="M1604.211277955863 209.10263223201036 C1620.5132056231416 201.48879944889993, 1634.6380513669171 197.24190091381968, 1671.765019744727 181.67252249270678 M1603.47056392366 210.09558376297355 C1627.5349206372343 200.4633432453647, 1648.5132321991764 190.70470643119512, 1669.1734678857952 182.87273999676108 M1671.8567422331303 181.20876020938158 C1686.2507640906601 180.89717473648489, 1703.8283110336392 184.20878376625478, 1721.1839505136936 180.87967128306627 M1670.4253819101482 182.014609541744 C1687.5232305155128 183.44818047992885, 1706.407551441434 183.19448511116207, 1720.7158812397151 182.70774706825614" stroke="#c2410c" stroke-width="2" fill="none" stroke-dasharray="8,4" marker-end="url(#ah-end-arrow9)"/></g><metadata><excalidraw:scene xmlns:excalidraw="https://excalidraw.com/svg" data="eyJ0eXBlIjoiZXhjYWxpZHJhdyIsInZlcnNpb24iOjIsInNvdXJjZSI6Imh0dHBzOi8vZXhjYWxpZHJhdy5jb20iLCJlbGVtZW50cyI6W3sidHlwZSI6InRleHQiLCJpZCI6InRpdGxlIiwieCI6MjAsInkiOjEyLCJ3aWR0aCI6ODAwLCJoZWlnaHQiOjM2LCJhbmdsZSI6MCwic3Ryb2tlV2lkdGgiOjEsInN0cm9rZVN0eWxlIjoic29saWQiLCJyb3VnaG5lc3MiOjAsIm9wYWNpdHkiOjEwMCwic2VlZCI6MTAwMDAsInZlcnNpb24iOjEsInZlcnNpb25Ob25jZSI6MTAwMDEsImlzRGVsZXRlZCI6ZmFsc2UsImdyb3VwSWRzIjpbXSwiYm91bmRFbGVtZW50cyI6bnVsbCwibGluayI6bnVsbCwibG9ja2VkIjpmYWxzZSwidGV4dCI6Ik9yZGVyIExpZmVjeWNsZSDigJQgU3RhdGUgRGlhZ3JhbSIsIm9yaWdpbmFsVGV4dCI6Ik9yZGVyIExpZmVjeWNsZSDigJQgU3RhdGUgRGlhZ3JhbSIsImZvbnRTaXplIjoyMiwiZm9udEZhbWlseSI6MSwidGV4dEFsaWduIjoibGVmdCIsInZlcnRpY2FsQWxpZ24iOiJ0b3AiLCJzdHJva2VDb2xvciI6IiMxZTI5M2IiLCJiYWNrZ3JvdW5kQ29sb3IiOiJ0cmFuc3BhcmVudCIsImZpbGxTdHlsZSI6InNvbGlkIiwiY29udGFpbmVySWQiOm51bGwsImxpbmVIZWlnaHQiOjEuMjV9LHsidHlwZSI6ImVsbGlwc2UiLCJpZCI6InN0YXJ0IiwieCI6NDAsInkiOjE2MSwid2lkdGgiOjQwLCJoZWlnaHQiOjQwLCJhbmdsZSI6MCwic3Ryb2tlV2lkdGgiOjIsInN0cm9rZVN0eWxlIjoic29saWQiLCJyb3VnaG5lc3MiOjAsIm9wYWNpdHkiOjEwMCwic2VlZCI6MTAwMDIsInZlcnNpb24iOjEsInZlcnNpb25Ob25jZSI6MTAwMDMsImlzRGVsZXRlZCI6ZmFsc2UsImdyb3VwSWRzIjpbXSwiYm91bmRFbGVtZW50cyI6W3siaWQiOiJzdGFydF90ZXh0IiwidHlwZSI6InRleHQifSx7ImlkIjoiYXJyb3dfMCIsInR5cGUiOiJhcnJvdyJ9XSwibGluayI6bnVsbCwibG9ja2VkIjpmYWxzZSwic3Ryb2tlQ29sb3IiOiIjMWU0MGFmIiwiYmFja2dyb3VuZENvbG9yIjoiIzFlNDBhZiIsImZpbGxTdHlsZSI6InNvbGlkIiwicm91bmRuZXNzIjpudWxsfSx7InR5cGUiOiJ0ZXh0IiwiaWQiOiJzdGFydF90ZXh0IiwieCI6NDAsInkiOjE3Mi4yNSwid2lkdGgiOjQwLCJoZWlnaHQiOjE3LjUsImFuZ2xlIjowLCJzdHJva2VXaWR0aCI6MSwic3Ryb2tlU3R5bGUiOiJzb2xpZCIsInJvdWdobmVzcyI6MCwib3BhY2l0eSI6MTAwLCJzZWVkIjoxMDAwNCwidmVyc2lvbiI6MSwidmVyc2lvbk5vbmNlIjoxMDAwNSwiaXNEZWxldGVkIjpmYWxzZSwiZ3JvdXBJZHMiOltdLCJib3VuZEVsZW1lbnRzIjpudWxsLCJsaW5rIjpudWxsLCJsb2NrZWQiOmZhbHNlLCJ0ZXh0Ijoi4pePIiwib3JpZ2luYWxUZXh0Ijoi4pePIiwiZm9udFNpemUiOjE0LCJmb250RmFtaWx5IjoxLCJ0ZXh0QWxpZ24iOiJjZW50ZXIiLCJ2ZXJ0aWNhbEFsaWduIjoibWlkZGxlIiwic3Ryb2tlQ29sb3IiOiIjMWUzYThhIiwiYmFja2dyb3VuZENvbG9yIjoidHJhbnNwYXJlbnQiLCJmaWxsU3R5bGUiOiJzb2xpZCIsImNvbnRhaW5lcklkIjoic3RhcnQiLCJsaW5lSGVpZ2h0IjoxLjI1fSx7InR5cGUiOiJyZWN0YW5nbGUiLCJpZCI6InBsYWNlZCIsIngiOjE4MCwieSI6MTUzLCJ3aWR0aCI6MTYwLCJoZWlnaHQiOjU2LCJhbmdsZSI6MCwic3Ryb2tlV2lkdGgiOjIsInN0cm9rZVN0eWxlIjoic29saWQiLCJyb3VnaG5lc3MiOjAsIm9wYWNpdHkiOjEwMCwic2VlZCI6MTAwMDYsInZlcnNpb24iOjEsInZlcnNpb25Ob25jZSI6MTAwMDcsImlzRGVsZXRlZCI6ZmFsc2UsImdyb3VwSWRzIjpbXSwiYm91bmRFbGVtZW50cyI6W3siaWQiOiJwbGFjZWRfdGV4dCIsInR5cGUiOiJ0ZXh0In0seyJpZCI6ImFycm93XzAiLCJ0eXBlIjoiYXJyb3cifSx7ImlkIjoiYXJyb3dfMSIsInR5cGUiOiJhcnJvdyJ9LHsiaWQiOiJhcnJvd183IiwidHlwZSI6ImFycm93In1dLCJsaW5rIjpudWxsLCJsb2NrZWQiOmZhbHNlLCJzdHJva2VDb2xvciI6IiMxNTgwM2QiLCJiYWNrZ3JvdW5kQ29sb3IiOiIjODZlZmFjIiwiZmlsbFN0eWxlIjoic29saWQiLCJyb3VuZG5lc3MiOnsidHlwZSI6M319LHsidHlwZSI6InRleHQiLCJpZCI6InBsYWNlZF90ZXh0IiwieCI6MTgwLCJ5IjoxNzIuMjUsIndpZHRoIjoxNjAsImhlaWdodCI6MTcuNSwiYW5nbGUiOjAsInN0cm9rZVdpZHRoIjoxLCJzdHJva2VTdHlsZSI6InNvbGlkIiwicm91Z2huZXNzIjowLCJvcGFjaXR5IjoxMDAsInNlZWQiOjEwMDA4LCJ2ZXJzaW9uIjoxLCJ2ZXJzaW9uTm9uY2UiOjEwMDA5LCJpc0RlbGV0ZWQiOmZhbHNlLCJncm91cElkcyI6W10sImJvdW5kRWxlbWVudHMiOm51bGwsImxpbmsiOm51bGwsImxvY2tlZCI6ZmFsc2UsInRleHQiOiJwbGFjZWQiLCJvcmlnaW5hbFRleHQiOiJwbGFjZWQiLCJmb250U2l6ZSI6MTQsImZvbnRGYW1pbHkiOjEsInRleHRBbGlnbiI6ImNlbnRlciIsInZlcnRpY2FsQWxpZ24iOiJtaWRkbGUiLCJzdHJva2VDb2xvciI6IiMxNDUzMmQiLCJiYWNrZ3JvdW5kQ29sb3IiOiJ0cmFuc3BhcmVudCIsImZpbGxTdHlsZSI6InNvbGlkIiwiY29udGFpbmVySWQiOiJwbGFjZWQiLCJsaW5lSGVpZ2h0IjoxLjI1fSx7InR5cGUiOiJyZWN0YW5nbGUiLCJpZCI6InBheW1lbnQiLCJ4Ijo0NDAsInkiOjIwMSwid2lkdGgiOjE3MCwiaGVpZ2h0Ijo1NiwiYW5nbGUiOjAsInN0cm9rZVdpZHRoIjoyLCJzdHJva2VTdHlsZSI6InNvbGlkIiwicm91Z2huZXNzIjowLCJvcGFjaXR5IjoxMDAsInNlZWQiOjEwMDEwLCJ2ZXJzaW9uIjoxLCJ2ZXJzaW9uTm9uY2UiOjEwMDExLCJpc0RlbGV0ZWQiOmZhbHNlLCJncm91cElkcyI6W10sImJvdW5kRWxlbWVudHMiOlt7ImlkIjoicGF5bWVudF90ZXh0IiwidHlwZSI6InRleHQifSx7ImlkIjoiYXJyb3dfMSIsInR5cGUiOiJhcnJvdyJ9LHsiaWQiOiJhcnJvd18yIiwidHlwZSI6ImFycm93In1dLCJsaW5rIjpudWxsLCJsb2NrZWQiOmZhbHNlLCJzdHJva2VDb2xvciI6IiMxNTgwM2QiLCJiYWNrZ3JvdW5kQ29sb3IiOiIjODZlZmFjIiwiZmlsbFN0eWxlIjoic29saWQiLCJyb3VuZG5lc3MiOnsidHlwZSI6M319LHsidHlwZSI6InRleHQiLCJpZCI6InBheW1lbnRfdGV4dCIsIngiOjQ0MCwieSI6MjIwLjI1LCJ3aWR0aCI6MTcwLCJoZWlnaHQiOjE3LjUsImFuZ2xlIjowLCJzdHJva2VXaWR0aCI6MSwic3Ryb2tlU3R5bGUiOiJzb2xpZCIsInJvdWdobmVzcyI6MCwib3BhY2l0eSI6MTAwLCJzZWVkIjoxMDAxMiwidmVyc2lvbiI6MSwidmVyc2lvbk5vbmNlIjoxMDAxMywiaXNEZWxldGVkIjpmYWxzZSwiZ3JvdXBJZHMiOltdLCJib3VuZEVsZW1lbnRzIjpudWxsLCJsaW5rIjpudWxsLCJsb2NrZWQiOmZhbHNlLCJ0ZXh0IjoicGF5bWVudF9wZW5kaW5nIiwib3JpZ2luYWxUZXh0IjoicGF5bWVudF9wZW5kaW5nIiwiZm9udFNpemUiOjE0LCJmb250RmFtaWx5IjoxLCJ0ZXh0QWxpZ24iOiJjZW50ZXIiLCJ2ZXJ0aWNhbEFsaWduIjoibWlkZGxlIiwic3Ryb2tlQ29sb3IiOiIjMTQ1MzJkIiwiYmFja2dyb3VuZENvbG9yIjoidHJhbnNwYXJlbnQiLCJmaWxsU3R5bGUiOiJzb2xpZCIsImNvbnRhaW5lcklkIjoicGF5bWVudCIsImxpbmVIZWlnaHQiOjEuMjV9LHsidHlwZSI6InJlY3RhbmdsZSIsImlkIjoicGFpZCIsIngiOjcxMCwieSI6MjAxLCJ3aWR0aCI6MTQwLCJoZWlnaHQiOjU2LCJhbmdsZSI6MCwic3Ryb2tlV2lkdGgiOjIsInN0cm9rZVN0eWxlIjoic29saWQiLCJyb3VnaG5lc3MiOjAsIm9wYWNpdHkiOjEwMCwic2VlZCI6MTAwMTQsInZlcnNpb24iOjEsInZlcnNpb25Ob25jZSI6MTAwMTUsImlzRGVsZXRlZCI6ZmFsc2UsImdyb3VwSWRzIjpbXSwiYm91bmRFbGVtZW50cyI6W3siaWQiOiJwYWlkX3RleHQiLCJ0eXBlIjoidGV4dCJ9LHsiaWQiOiJhcnJvd18yIiwidHlwZSI6ImFycm93In0seyJpZCI6ImFycm93XzMiLCJ0eXBlIjoiYXJyb3cifSx7ImlkIjoiYXJyb3dfOCIsInR5cGUiOiJhcnJvdyJ9XSwibGluayI6bnVsbCwibG9ja2VkIjpmYWxzZSwic3Ryb2tlQ29sb3IiOiIjMTU4MDNkIiwiYmFja2dyb3VuZENvbG9yIjoiIzg2ZWZhYyIsImZpbGxTdHlsZSI6InNvbGlkIiwicm91bmRuZXNzIjp7InR5cGUiOjN9fSx7InR5cGUiOiJ0ZXh0IiwiaWQiOiJwYWlkX3RleHQiLCJ4Ijo3MTAsInkiOjIyMC4yNSwid2lkdGgiOjE0MCwiaGVpZ2h0IjoxNy41LCJhbmdsZSI6MCwic3Ryb2tlV2lkdGgiOjEsInN0cm9rZVN0eWxlIjoic29saWQiLCJyb3VnaG5lc3MiOjAsIm9wYWNpdHkiOjEwMCwic2VlZCI6MTAwMTYsInZlcnNpb24iOjEsInZlcnNpb25Ob25jZSI6MTAwMTcsImlzRGVsZXRlZCI6ZmFsc2UsImdyb3VwSWRzIjpbXSwiYm91bmRFbGVtZW50cyI6bnVsbCwibGluayI6bnVsbCwibG9ja2VkIjpmYWxzZSwidGV4dCI6InBhaWQiLCJvcmlnaW5hbFRleHQiOiJwYWlkIiwiZm9udFNpemUiOjE0LCJmb250RmFtaWx5IjoxLCJ0ZXh0QWxpZ24iOiJjZW50ZXIiLCJ2ZXJ0aWNhbEFsaWduIjoibWlkZGxlIiwic3Ryb2tlQ29sb3IiOiIjMTQ1MzJkIiwiYmFja2dyb3VuZENvbG9yIjoidHJhbnNwYXJlbnQiLCJmaWxsU3R5bGUiOiJzb2xpZCIsImNvbnRhaW5lcklkIjoicGFpZCIsImxpbmVIZWlnaHQiOjEuMjV9LHsidHlwZSI6InJlY3RhbmdsZSIsImlkIjoiZnVsZmlsbG1lbnQiLCJ4Ijo5NTAsInkiOjIxMSwid2lkdGgiOjE2MCwiaGVpZ2h0Ijo1NiwiYW5nbGUiOjAsInN0cm9rZVdpZHRoIjoyLCJzdHJva2VTdHlsZSI6InNvbGlkIiwicm91Z2huZXNzIjowLCJvcGFjaXR5IjoxMDAsInNlZWQiOjEwMDE4LCJ2ZXJzaW9uIjoxLCJ2ZXJzaW9uTm9uY2UiOjEwMDE5LCJpc0RlbGV0ZWQiOmZhbHNlLCJncm91cElkcyI6W10sImJvdW5kRWxlbWVudHMiOlt7ImlkIjoiZnVsZmlsbG1lbnRfdGV4dCIsInR5cGUiOiJ0ZXh0In0seyJpZCI6ImFycm93XzMiLCJ0eXBlIjoiYXJyb3cifSx7ImlkIjoiYXJyb3dfNCIsInR5cGUiOiJhcnJvdyJ9XSwibGluayI6bnVsbCwibG9ja2VkIjpmYWxzZSwic3Ryb2tlQ29sb3IiOiIjMTU4MDNkIiwiYmFja2dyb3VuZENvbG9yIjoiIzg2ZWZhYyIsImZpbGxTdHlsZSI6InNvbGlkIiwicm91bmRuZXNzIjp7InR5cGUiOjN9fSx7InR5cGUiOiJ0ZXh0IiwiaWQiOiJmdWxmaWxsbWVudF90ZXh0IiwieCI6OTUwLCJ5IjoyMzAuMjUsIndpZHRoIjoxNjAsImhlaWdodCI6MTcuNSwiYW5nbGUiOjAsInN0cm9rZVdpZHRoIjoxLCJzdHJva2VTdHlsZSI6InNvbGlkIiwicm91Z2huZXNzIjowLCJvcGFjaXR5IjoxMDAsInNlZWQiOjEwMDIwLCJ2ZXJzaW9uIjoxLCJ2ZXJzaW9uTm9uY2UiOjEwMDIxLCJpc0RlbGV0ZWQiOmZhbHNlLCJncm91cElkcyI6W10sImJvdW5kRWxlbWVudHMiOm51bGwsImxpbmsiOm51bGwsImxvY2tlZCI6ZmFsc2UsInRleHQiOiJmdWxmaWxsbWVudCIsIm9yaWdpbmFsVGV4dCI6ImZ1bGZpbGxtZW50IiwiZm9udFNpemUiOjE0LCJmb250RmFtaWx5IjoxLCJ0ZXh0QWxpZ24iOiJjZW50ZXIiLCJ2ZXJ0aWNhbEFsaWduIjoibWlkZGxlIiwic3Ryb2tlQ29sb3IiOiIjMTQ1MzJkIiwiYmFja2dyb3VuZENvbG9yIjoidHJhbnNwYXJlbnQiLCJmaWxsU3R5bGUiOiJzb2xpZCIsImNvbnRhaW5lcklkIjoiZnVsZmlsbG1lbnQiLCJsaW5lSGVpZ2h0IjoxLjI1fSx7InR5cGUiOiJyZWN0YW5nbGUiLCJpZCI6InNoaXBwZWQiLCJ4IjoxMjEwLCJ5IjoyMTEsIndpZHRoIjoxNTAsImhlaWdodCI6NTYsImFuZ2xlIjowLCJzdHJva2VXaWR0aCI6Miwic3Ryb2tlU3R5bGUiOiJzb2xpZCIsInJvdWdobmVzcyI6MCwib3BhY2l0eSI6MTAwLCJzZWVkIjoxMDAyMiwidmVyc2lvbiI6MSwidmVyc2lvbk5vbmNlIjoxMDAyMywiaXNEZWxldGVkIjpmYWxzZSwiZ3JvdXBJZHMiOltdLCJib3VuZEVsZW1lbnRzIjpbeyJpZCI6InNoaXBwZWRfdGV4dCIsInR5cGUiOiJ0ZXh0In0seyJpZCI6ImFycm93XzQiLCJ0eXBlIjoiYXJyb3cifSx7ImlkIjoiYXJyb3dfNSIsInR5cGUiOiJhcnJvdyJ9XSwibGluayI6bnVsbCwibG9ja2VkIjpmYWxzZSwic3Ryb2tlQ29sb3IiOiIjMTU4MDNkIiwiYmFja2dyb3VuZENvbG9yIjoiIzg2ZWZhYyIsImZpbGxTdHlsZSI6InNvbGlkIiwicm91bmRuZXNzIjp7InR5cGUiOjN9fSx7InR5cGUiOiJ0ZXh0IiwiaWQiOiJzaGlwcGVkX3RleHQiLCJ4IjoxMjEwLCJ5IjoyMzAuMjUsIndpZHRoIjoxNTAsImhlaWdodCI6MTcuNSwiYW5nbGUiOjAsInN0cm9rZVdpZHRoIjoxLCJzdHJva2VTdHlsZSI6InNvbGlkIiwicm91Z2huZXNzIjowLCJvcGFjaXR5IjoxMDAsInNlZWQiOjEwMDI0LCJ2ZXJzaW9uIjoxLCJ2ZXJzaW9uTm9uY2UiOjEwMDI1LCJpc0RlbGV0ZWQiOmZhbHNlLCJncm91cElkcyI6W10sImJvdW5kRWxlbWVudHMiOm51bGwsImxpbmsiOm51bGwsImxvY2tlZCI6ZmFsc2UsInRleHQiOiJzaGlwcGVkIiwib3JpZ2luYWxUZXh0Ijoic2hpcHBlZCIsImZvbnRTaXplIjoxNCwiZm9udEZhbWlseSI6MSwidGV4dEFsaWduIjoiY2VudGVyIiwidmVydGljYWxBbGlnbiI6Im1pZGRsZSIsInN0cm9rZUNvbG9yIjoiIzE0NTMyZCIsImJhY2tncm91bmRDb2xvciI6InRyYW5zcGFyZW50IiwiZmlsbFN0eWxlIjoic29saWQiLCJjb250YWluZXJJZCI6InNoaXBwZWQiLCJsaW5lSGVpZ2h0IjoxLjI1fSx7InR5cGUiOiJyZWN0YW5nbGUiLCJpZCI6ImRlbGl2ZXJlZCIsIngiOjE0NjAsInkiOjIxMSwid2lkdGgiOjE2MCwiaGVpZ2h0Ijo1NiwiYW5nbGUiOjAsInN0cm9rZVdpZHRoIjoyLCJzdHJva2VTdHlsZSI6InNvbGlkIiwicm91Z2huZXNzIjowLCJvcGFjaXR5IjoxMDAsInNlZWQiOjEwMDI2LCJ2ZXJzaW9uIjoxLCJ2ZXJzaW9uTm9uY2UiOjEwMDI3LCJpc0RlbGV0ZWQiOmZhbHNlLCJncm91cElkcyI6W10sImJvdW5kRWxlbWVudHMiOlt7ImlkIjoiZGVsaXZlcmVkX3RleHQiLCJ0eXBlIjoidGV4dCJ9LHsiaWQiOiJhcnJvd181IiwidHlwZSI6ImFycm93In0seyJpZCI6ImFycm93XzYiLCJ0eXBlIjoiYXJyb3cifSx7ImlkIjoiYXJyb3dfOSIsInR5cGUiOiJhcnJvdyJ9XSwibGluayI6bnVsbCwibG9ja2VkIjpmYWxzZSwic3Ryb2tlQ29sb3IiOiIjMDQ3ODU3IiwiYmFja2dyb3VuZENvbG9yIjoiI2E3ZjNkMCIsImZpbGxTdHlsZSI6InNvbGlkIiwicm91bmRuZXNzIjp7InR5cGUiOjN9fSx7InR5cGUiOiJ0ZXh0IiwiaWQiOiJkZWxpdmVyZWRfdGV4dCIsIngiOjE0NjAsInkiOjIzMC4yNSwid2lkdGgiOjE2MCwiaGVpZ2h0IjoxNy41LCJhbmdsZSI6MCwic3Ryb2tlV2lkdGgiOjEsInN0cm9rZVN0eWxlIjoic29saWQiLCJyb3VnaG5lc3MiOjAsIm9wYWNpdHkiOjEwMCwic2VlZCI6MTAwMjgsInZlcnNpb24iOjEsInZlcnNpb25Ob25jZSI6MTAwMjksImlzRGVsZXRlZCI6ZmFsc2UsImdyb3VwSWRzIjpbXSwiYm91bmRFbGVtZW50cyI6bnVsbCwibGluayI6bnVsbCwibG9ja2VkIjpmYWxzZSwidGV4dCI6ImRlbGl2ZXJlZCIsIm9yaWdpbmFsVGV4dCI6ImRlbGl2ZXJlZCIsImZvbnRTaXplIjoxNCwiZm9udEZhbWlseSI6MSwidGV4dEFsaWduIjoiY2VudGVyIiwidmVydGljYWxBbGlnbiI6Im1pZGRsZSIsInN0cm9rZUNvbG9yIjoiIzA2NGUzYiIsImJhY2tncm91bmRDb2xvciI6InRyYW5zcGFyZW50IiwiZmlsbFN0eWxlIjoic29saWQiLCJjb250YWluZXJJZCI6ImRlbGl2ZXJlZCIsImxpbmVIZWlnaHQiOjEuMjV9LHsidHlwZSI6ImVsbGlwc2UiLCJpZCI6ImVuZCIsIngiOjE3NzUsInkiOjI3MC41LCJ3aWR0aCI6NTAsImhlaWdodCI6NTAsImFuZ2xlIjowLCJzdHJva2VXaWR0aCI6Miwic3Ryb2tlU3R5bGUiOiJzb2xpZCIsInJvdWdobmVzcyI6MCwib3BhY2l0eSI6MTAwLCJzZWVkIjoxMDAzMCwidmVyc2lvbiI6MSwidmVyc2lvbk5vbmNlIjoxMDAzMSwiaXNEZWxldGVkIjpmYWxzZSwiZ3JvdXBJZHMiOltdLCJib3VuZEVsZW1lbnRzIjpbeyJpZCI6ImVuZF90ZXh0IiwidHlwZSI6InRleHQifSx7ImlkIjoiYXJyb3dfNiIsInR5cGUiOiJhcnJvdyJ9XSwibGluayI6bnVsbCwibG9ja2VkIjpmYWxzZSwic3Ryb2tlQ29sb3IiOiIjMDQ3ODU3IiwiYmFja2dyb3VuZENvbG9yIjoiIzA0Nzg1NyIsImZpbGxTdHlsZSI6InNvbGlkIiwicm91bmRuZXNzIjpudWxsfSx7InR5cGUiOiJ0ZXh0IiwiaWQiOiJlbmRfdGV4dCIsIngiOjE3NzUsInkiOjI4Ni43NSwid2lkdGgiOjUwLCJoZWlnaHQiOjE3LjUsImFuZ2xlIjowLCJzdHJva2VXaWR0aCI6MSwic3Ryb2tlU3R5bGUiOiJzb2xpZCIsInJvdWdobmVzcyI6MCwib3BhY2l0eSI6MTAwLCJzZWVkIjoxMDAzMiwidmVyc2lvbiI6MSwidmVyc2lvbk5vbmNlIjoxMDAzMywiaXNEZWxldGVkIjpmYWxzZSwiZ3JvdXBJZHMiOltdLCJib3VuZEVsZW1lbnRzIjpudWxsLCJsaW5rIjpudWxsLCJsb2NrZWQiOmZhbHNlLCJ0ZXh0Ijoi4peJIiwib3JpZ2luYWxUZXh0Ijoi4peJIiwiZm9udFNpemUiOjE0LCJmb250RmFtaWx5IjoxLCJ0ZXh0QWxpZ24iOiJjZW50ZXIiLCJ2ZXJ0aWNhbEFsaWduIjoibWlkZGxlIiwic3Ryb2tlQ29sb3IiOiIjMDY0ZTNiIiwiYmFja2dyb3VuZENvbG9yIjoidHJhbnNwYXJlbnQiLCJmaWxsU3R5bGUiOiJzb2xpZCIsImNvbnRhaW5lcklkIjoiZW5kIiwibGluZUhlaWdodCI6MS4yNX0seyJ0eXBlIjoicmVjdGFuZ2xlIiwiaWQiOiJjYW5jZWxsZWQiLCJ4Ijo5NTAsInkiOjk1LCJ3aWR0aCI6MTYwLCJoZWlnaHQiOjU2LCJhbmdsZSI6MCwic3Ryb2tlV2lkdGgiOjIsInN0cm9rZVN0eWxlIjoic29saWQiLCJyb3VnaG5lc3MiOjAsIm9wYWNpdHkiOjEwMCwic2VlZCI6MTAwMzQsInZlcnNpb24iOjEsInZlcnNpb25Ob25jZSI6MTAwMzUsImlzRGVsZXRlZCI6ZmFsc2UsImdyb3VwSWRzIjpbXSwiYm91bmRFbGVtZW50cyI6W3siaWQiOiJjYW5jZWxsZWRfdGV4dCIsInR5cGUiOiJ0ZXh0In0seyJpZCI6ImFycm93XzciLCJ0eXBlIjoiYXJyb3cifSx7ImlkIjoiYXJyb3dfOCIsInR5cGUiOiJhcnJvdyJ9XSwibGluayI6bnVsbCwibG9ja2VkIjpmYWxzZSwic3Ryb2tlQ29sb3IiOiIjYjkxYzFjIiwiYmFja2dyb3VuZENvbG9yIjoiI2ZlY2FjYSIsImZpbGxTdHlsZSI6InNvbGlkIiwicm91bmRuZXNzIjp7InR5cGUiOjN9fSx7InR5cGUiOiJ0ZXh0IiwiaWQiOiJjYW5jZWxsZWRfdGV4dCIsIngiOjk1MCwieSI6MTE0LjI1LCJ3aWR0aCI6MTYwLCJoZWlnaHQiOjE3LjUsImFuZ2xlIjowLCJzdHJva2VXaWR0aCI6MSwic3Ryb2tlU3R5bGUiOiJzb2xpZCIsInJvdWdobmVzcyI6MCwib3BhY2l0eSI6MTAwLCJzZWVkIjoxMDAzNiwidmVyc2lvbiI6MSwidmVyc2lvbk5vbmNlIjoxMDAzNywiaXNEZWxldGVkIjpmYWxzZSwiZ3JvdXBJZHMiOltdLCJib3VuZEVsZW1lbnRzIjpudWxsLCJsaW5rIjpudWxsLCJsb2NrZWQiOmZhbHNlLCJ0ZXh0IjoiY2FuY2VsbGVkIiwib3JpZ2luYWxUZXh0IjoiY2FuY2VsbGVkIiwiZm9udFNpemUiOjE0LCJmb250RmFtaWx5IjoxLCJ0ZXh0QWxpZ24iOiJjZW50ZXIiLCJ2ZXJ0aWNhbEFsaWduIjoibWlkZGxlIiwic3Ryb2tlQ29sb3IiOiIjN2YxZDFkIiwiYmFja2dyb3VuZENvbG9yIjoidHJhbnNwYXJlbnQiLCJmaWxsU3R5bGUiOiJzb2xpZCIsImNvbnRhaW5lcklkIjoiY2FuY2VsbGVkIiwibGluZUhlaWdodCI6MS4yNX0seyJ0eXBlIjoicmVjdGFuZ2xlIiwiaWQiOiJyZWZ1bmRlZCIsIngiOjE3MjAsInkiOjE1NC41LCJ3aWR0aCI6MTYwLCJoZWlnaHQiOjU2LCJhbmdsZSI6MCwic3Ryb2tlV2lkdGgiOjIsInN0cm9rZVN0eWxlIjoic29saWQiLCJyb3VnaG5lc3MiOjAsIm9wYWNpdHkiOjEwMCwic2VlZCI6MTAwMzgsInZlcnNpb24iOjEsInZlcnNpb25Ob25jZSI6MTAwMzksImlzRGVsZXRlZCI6ZmFsc2UsImdyb3VwSWRzIjpbXSwiYm91bmRFbGVtZW50cyI6W3siaWQiOiJyZWZ1bmRlZF90ZXh0IiwidHlwZSI6InRleHQifSx7ImlkIjoiYXJyb3dfOSIsInR5cGUiOiJhcnJvdyJ9XSwibGluayI6bnVsbCwibG9ja2VkIjpmYWxzZSwic3Ryb2tlQ29sb3IiOiIjYzI0MTBjIiwiYmFja2dyb3VuZENvbG9yIjoiI2ZlZDdhYSIsImZpbGxTdHlsZSI6InNvbGlkIiwicm91bmRuZXNzIjp7InR5cGUiOjN9fSx7InR5cGUiOiJ0ZXh0IiwiaWQiOiJyZWZ1bmRlZF90ZXh0IiwieCI6MTcyMCwieSI6MTczLjc1LCJ3aWR0aCI6MTYwLCJoZWlnaHQiOjE3LjUsImFuZ2xlIjowLCJzdHJva2VXaWR0aCI6MSwic3Ryb2tlU3R5bGUiOiJzb2xpZCIsInJvdWdobmVzcyI6MCwib3BhY2l0eSI6MTAwLCJzZWVkIjoxMDA0MCwidmVyc2lvbiI6MSwidmVyc2lvbk5vbmNlIjoxMDA0MSwiaXNEZWxldGVkIjpmYWxzZSwiZ3JvdXBJZHMiOltdLCJib3VuZEVsZW1lbnRzIjpudWxsLCJsaW5rIjpudWxsLCJsb2NrZWQiOmZhbHNlLCJ0ZXh0IjoicmVmdW5kZWQiLCJvcmlnaW5hbFRleHQiOiJyZWZ1bmRlZCIsImZvbnRTaXplIjoxNCwiZm9udEZhbWlseSI6MSwidGV4dEFsaWduIjoiY2VudGVyIiwidmVydGljYWxBbGlnbiI6Im1pZGRsZSIsInN0cm9rZUNvbG9yIjoiIzdjMmQxMiIsImJhY2tncm91bmRDb2xvciI6InRyYW5zcGFyZW50IiwiZmlsbFN0eWxlIjoic29saWQiLCJjb250YWluZXJJZCI6InJlZnVuZGVkIiwibGluZUhlaWdodCI6MS4yNX0seyJ0eXBlIjoiYXJyb3ciLCJpZCI6ImFycm93XzAiLCJ4Ijo4MCwieSI6MTgxLCJ3aWR0aCI6MTAwLCJoZWlnaHQiOjAsImFuZ2xlIjowLCJzdHJva2VXaWR0aCI6Miwic3Ryb2tlU3R5bGUiOiJzb2xpZCIsInJvdWdobmVzcyI6MSwib3BhY2l0eSI6MTAwLCJzZWVkIjoxMDA0MiwidmVyc2lvbiI6MSwidmVyc2lvbk5vbmNlIjoxMDA0MywiaXNEZWxldGVkIjpmYWxzZSwiZ3JvdXBJZHMiOltdLCJib3VuZEVsZW1lbnRzIjpudWxsLCJsaW5rIjpudWxsLCJsb2NrZWQiOmZhbHNlLCJzdHJva2VDb2xvciI6IiMxZTQwYWYiLCJiYWNrZ3JvdW5kQ29sb3IiOiJ0cmFuc3BhcmVudCIsImZpbGxTdHlsZSI6InNvbGlkIiwicG9pbnRzIjpbWzAsMF0sWzUwLDBdLFsxMDAsMF1dLCJzdGFydEJpbmRpbmciOm51bGwsImVuZEJpbmRpbmciOm51bGwsInN0YXJ0QXJyb3doZWFkIjpudWxsLCJlbmRBcnJvd2hlYWQiOiJ0cmlhbmdsZSJ9LHsidHlwZSI6InRleHQiLCJpZCI6ImFycm93XzBfbGFiZWwiLCJ4Ijo5My41LCJ5IjoxNTIsIndpZHRoIjo3MywiaGVpZ2h0IjoxOCwiYW5nbGUiOjAsInN0cm9rZVdpZHRoIjoxLCJzdHJva2VTdHlsZSI6InNvbGlkIiwicm91Z2huZXNzIjowLCJvcGFjaXR5IjoxMDAsInNlZWQiOjEwMDQ0LCJ2ZXJzaW9uIjoxLCJ2ZXJzaW9uTm9uY2UiOjEwMDQ1LCJpc0RlbGV0ZWQiOmZhbHNlLCJncm91cElkcyI6W10sImJvdW5kRWxlbWVudHMiOm51bGwsImxpbmsiOm51bGwsImxvY2tlZCI6ZmFsc2UsInRleHQiOiJuZXcgb3JkZXIiLCJvcmlnaW5hbFRleHQiOiJuZXcgb3JkZXIiLCJmb250U2l6ZSI6MTEsImZvbnRGYW1pbHkiOjEsInRleHRBbGlnbiI6ImNlbnRlciIsInZlcnRpY2FsQWxpZ24iOiJ0b3AiLCJzdHJva2VDb2xvciI6IiMxZTQwYWYiLCJiYWNrZ3JvdW5kQ29sb3IiOiJ0cmFuc3BhcmVudCIsImZpbGxTdHlsZSI6InNvbGlkIiwiY29udGFpbmVySWQiOm51bGwsImxpbmVIZWlnaHQiOjEuMjV9LHsidHlwZSI6ImFycm93IiwiaWQiOiJhcnJvd18xIiwieCI6MzM1LjgzMzMzMzMzMzMzMzMsInkiOjIwOSwid2lkdGgiOjEwNC4xNjY2NjY2NjY2NjY2OSwiaGVpZ2h0IjoyMCwiYW5nbGUiOjAsInN0cm9rZVdpZHRoIjoyLCJzdHJva2VTdHlsZSI6InNvbGlkIiwicm91Z2huZXNzIjoxLCJvcGFjaXR5IjoxMDAsInNlZWQiOjEwMDQ2LCJ2ZXJzaW9uIjoxLCJ2ZXJzaW9uTm9uY2UiOjEwMDQ3LCJpc0RlbGV0ZWQiOmZhbHNlLCJncm91cElkcyI6W10sImJvdW5kRWxlbWVudHMiOm51bGwsImxpbmsiOm51bGwsImxvY2tlZCI6ZmFsc2UsInN0cm9rZUNvbG9yIjoiIzE1ODAzZCIsImJhY2tncm91bmRDb2xvciI6InRyYW5zcGFyZW50IiwiZmlsbFN0eWxlIjoic29saWQiLCJwb2ludHMiOltbMCwwXSxbNTQuMiwyMF0sWzEwNC4yLDIwXV0sInN0YXJ0QmluZGluZyI6bnVsbCwiZW5kQmluZGluZyI6bnVsbCwic3RhcnRBcnJvd2hlYWQiOm51bGwsImVuZEFycm93aGVhZCI6InRyaWFuZ2xlIn0seyJ0eXBlIjoidGV4dCIsImlkIjoiYXJyb3dfMV9sYWJlbCIsIngiOjM2My45Mjc0ODE2NTUxODMxNiwieSI6MjAxLjIzODA3MDUxNzIxMjI0LCJ3aWR0aCI6NjYsImhlaWdodCI6MTgsImFuZ2xlIjowLCJzdHJva2VXaWR0aCI6MSwic3Ryb2tlU3R5bGUiOiJzb2xpZCIsInJvdWdobmVzcyI6MCwib3BhY2l0eSI6MTAwLCJzZWVkIjoxMDA0OCwidmVyc2lvbiI6MSwidmVyc2lvbk5vbmNlIjoxMDA0OSwiaXNEZWxldGVkIjpmYWxzZSwiZ3JvdXBJZHMiOltdLCJib3VuZEVsZW1lbnRzIjpudWxsLCJsaW5rIjpudWxsLCJsb2NrZWQiOmZhbHNlLCJ0ZXh0IjoiY2hlY2tvdXQiLCJvcmlnaW5hbFRleHQiOiJjaGVja291dCIsImZvbnRTaXplIjoxMSwiZm9udEZhbWlseSI6MSwidGV4dEFsaWduIjoiY2VudGVyIiwidmVydGljYWxBbGlnbiI6InRvcCIsInN0cm9rZUNvbG9yIjoiIzE1ODAzZCIsImJhY2tncm91bmRDb2xvciI6InRyYW5zcGFyZW50IiwiZmlsbFN0eWxlIjoic29saWQiLCJjb250YWluZXJJZCI6bnVsbCwibGluZUhlaWdodCI6MS4yNX0seyJ0eXBlIjoiYXJyb3ciLCJpZCI6ImFycm93XzIiLCJ4Ijo2MTAsInkiOjIyOSwid2lkdGgiOjEwMCwiaGVpZ2h0IjowLCJhbmdsZSI6MCwic3Ryb2tlV2lkdGgiOjIsInN0cm9rZVN0eWxlIjoic29saWQiLCJyb3VnaG5lc3MiOjEsIm9wYWNpdHkiOjEwMCwic2VlZCI6MTAwNTAsInZlcnNpb24iOjEsInZlcnNpb25Ob25jZSI6MTAwNTEsImlzRGVsZXRlZCI6ZmFsc2UsImdyb3VwSWRzIjpbXSwiYm91bmRFbGVtZW50cyI6bnVsbCwibGluayI6bnVsbCwibG9ja2VkIjpmYWxzZSwic3Ryb2tlQ29sb3IiOiIjMTU4MDNkIiwiYmFja2dyb3VuZENvbG9yIjoidHJhbnNwYXJlbnQiLCJmaWxsU3R5bGUiOiJzb2xpZCIsInBvaW50cyI6W1swLDBdLFs1MCwwXSxbMTAwLDBdXSwic3RhcnRCaW5kaW5nIjpudWxsLCJlbmRCaW5kaW5nIjpudWxsLCJzdGFydEFycm93aGVhZCI6bnVsbCwiZW5kQXJyb3doZWFkIjoidHJpYW5nbGUifSx7InR5cGUiOiJ0ZXh0IiwiaWQiOiJhcnJvd18yX2xhYmVsIiwieCI6NjIwLCJ5IjoyMDAsIndpZHRoIjo4MCwiaGVpZ2h0IjoxOCwiYW5nbGUiOjAsInN0cm9rZVdpZHRoIjoxLCJzdHJva2VTdHlsZSI6InNvbGlkIiwicm91Z2huZXNzIjowLCJvcGFjaXR5IjoxMDAsInNlZWQiOjEwMDUyLCJ2ZXJzaW9uIjoxLCJ2ZXJzaW9uTm9uY2UiOjEwMDUzLCJpc0RlbGV0ZWQiOmZhbHNlLCJncm91cElkcyI6W10sImJvdW5kRWxlbWVudHMiOm51bGwsImxpbmsiOm51bGwsImxvY2tlZCI6ZmFsc2UsInRleHQiOiJwYXltZW50IG9rIiwib3JpZ2luYWxUZXh0IjoicGF5bWVudCBvayIsImZvbnRTaXplIjoxMSwiZm9udEZhbWlseSI6MSwidGV4dEFsaWduIjoiY2VudGVyIiwidmVydGljYWxBbGlnbiI6InRvcCIsInN0cm9rZUNvbG9yIjoiIzE1ODAzZCIsImJhY2tncm91bmRDb2xvciI6InRyYW5zcGFyZW50IiwiZmlsbFN0eWxlIjoic29saWQiLCJjb250YWluZXJJZCI6bnVsbCwibGluZUhlaWdodCI6MS4yNX0seyJ0eXBlIjoiYXJyb3ciLCJpZCI6ImFycm93XzMiLCJ4Ijo4NTAsInkiOjIzNC44MzMzMzMzMzMzMzMzNCwid2lkdGgiOjEwMCwiaGVpZ2h0Ijo0LjE2NjY2NjY2NjY2NjY1NywiYW5nbGUiOjAsInN0cm9rZVdpZHRoIjoyLCJzdHJva2VTdHlsZSI6InNvbGlkIiwicm91Z2huZXNzIjoxLCJvcGFjaXR5IjoxMDAsInNlZWQiOjEwMDU0LCJ2ZXJzaW9uIjoxLCJ2ZXJzaW9uTm9uY2UiOjEwMDU1LCJpc0RlbGV0ZWQiOmZhbHNlLCJncm91cElkcyI6W10sImJvdW5kRWxlbWVudHMiOm51bGwsImxpbmsiOm51bGwsImxvY2tlZCI6ZmFsc2UsInN0cm9rZUNvbG9yIjoiIzE1ODAzZCIsImJhY2tncm91bmRDb2xvciI6InRyYW5zcGFyZW50IiwiZmlsbFN0eWxlIjoic29saWQiLCJwb2ludHMiOltbMCwwXSxbNTAsNC4yXSxbMTAwLDQuMl1dLCJzdGFydEJpbmRpbmciOm51bGwsImVuZEJpbmRpbmciOm51bGwsInN0YXJ0QXJyb3doZWFkIjpudWxsLCJlbmRBcnJvd2hlYWQiOiJ0cmlhbmdsZSJ9LHsidHlwZSI6InRleHQiLCJpZCI6ImFycm93XzNfbGFiZWwiLCJ4Ijo4NjUuMTYwOTA5NTk3MDc0OCwieSI6MjEwLjA2OTA4NDgzNTEwMjQyLCJ3aWR0aCI6NzMsImhlaWdodCI6MTgsImFuZ2xlIjowLCJzdHJva2VXaWR0aCI6MSwic3Ryb2tlU3R5bGUiOiJzb2xpZCIsInJvdWdobmVzcyI6MCwib3BhY2l0eSI6MTAwLCJzZWVkIjoxMDA1NiwidmVyc2lvbiI6MSwidmVyc2lvbk5vbmNlIjoxMDA1NywiaXNEZWxldGVkIjpmYWxzZSwiZ3JvdXBJZHMiOltdLCJib3VuZEVsZW1lbnRzIjpudWxsLCJsaW5rIjpudWxsLCJsb2NrZWQiOmZhbHNlLCJ0ZXh0IjoiY29uZmlybWVkIiwib3JpZ2luYWxUZXh0IjoiY29uZmlybWVkIiwiZm9udFNpemUiOjExLCJmb250RmFtaWx5IjoxLCJ0ZXh0QWxpZ24iOiJjZW50ZXIiLCJ2ZXJ0aWNhbEFsaWduIjoidG9wIiwic3Ryb2tlQ29sb3IiOiIjMTU4MDNkIiwiYmFja2dyb3VuZENvbG9yIjoidHJhbnNwYXJlbnQiLCJmaWxsU3R5bGUiOiJzb2xpZCIsImNvbnRhaW5lcklkIjpudWxsLCJsaW5lSGVpZ2h0IjoxLjI1fSx7InR5cGUiOiJhcnJvdyIsImlkIjoiYXJyb3dfNCIsIngiOjExMTAsInkiOjIzOSwid2lkdGgiOjEwMCwiaGVpZ2h0IjowLCJhbmdsZSI6MCwic3Ryb2tlV2lkdGgiOjIsInN0cm9rZVN0eWxlIjoic29saWQiLCJyb3VnaG5lc3MiOjEsIm9wYWNpdHkiOjEwMCwic2VlZCI6MTAwNTgsInZlcnNpb24iOjEsInZlcnNpb25Ob25jZSI6MTAwNTksImlzRGVsZXRlZCI6ZmFsc2UsImdyb3VwSWRzIjpbXSwiYm91bmRFbGVtZW50cyI6bnVsbCwibGluayI6bnVsbCwibG9ja2VkIjpmYWxzZSwic3Ryb2tlQ29sb3IiOiIjMTU4MDNkIiwiYmFja2dyb3VuZENvbG9yIjoidHJhbnNwYXJlbnQiLCJmaWxsU3R5bGUiOiJzb2xpZCIsInBvaW50cyI6W1swLDBdLFs1MCwwXSxbMTAwLDBdXSwic3RhcnRCaW5kaW5nIjpudWxsLCJlbmRCaW5kaW5nIjpudWxsLCJzdGFydEFycm93aGVhZCI6bnVsbCwiZW5kQXJyb3doZWFkIjoidHJpYW5nbGUifSx7InR5cGUiOiJ0ZXh0IiwiaWQiOiJhcnJvd180X2xhYmVsIiwieCI6MTEyMCwieSI6MjEwLCJ3aWR0aCI6ODAsImhlaWdodCI6MTgsImFuZ2xlIjowLCJzdHJva2VXaWR0aCI6MSwic3Ryb2tlU3R5bGUiOiJzb2xpZCIsInJvdWdobmVzcyI6MCwib3BhY2l0eSI6MTAwLCJzZWVkIjoxMDA2MCwidmVyc2lvbiI6MSwidmVyc2lvbk5vbmNlIjoxMDA2MSwiaXNEZWxldGVkIjpmYWxzZSwiZ3JvdXBJZHMiOltdLCJib3VuZEVsZW1lbnRzIjpudWxsLCJsaW5rIjpudWxsLCJsb2NrZWQiOmZhbHNlLCJ0ZXh0IjoiZGlzcGF0Y2hlZCIsIm9yaWdpbmFsVGV4dCI6ImRpc3BhdGNoZWQiLCJmb250U2l6ZSI6MTEsImZvbnRGYW1pbHkiOjEsInRleHRBbGlnbiI6ImNlbnRlciIsInZlcnRpY2FsQWxpZ24iOiJ0b3AiLCJzdHJva2VDb2xvciI6IiMxNTgwM2QiLCJiYWNrZ3JvdW5kQ29sb3IiOiJ0cmFuc3BhcmVudCIsImZpbGxTdHlsZSI6InNvbGlkIiwiY29udGFpbmVySWQiOm51bGwsImxpbmVIZWlnaHQiOjEuMjV9LHsidHlwZSI6ImFycm93IiwiaWQiOiJhcnJvd181IiwieCI6MTM2MCwieSI6MjM5LCJ3aWR0aCI6MTAwLCJoZWlnaHQiOjAsImFuZ2xlIjowLCJzdHJva2VXaWR0aCI6Miwic3Ryb2tlU3R5bGUiOiJzb2xpZCIsInJvdWdobmVzcyI6MSwib3BhY2l0eSI6MTAwLCJzZWVkIjoxMDA2MiwidmVyc2lvbiI6MSwidmVyc2lvbk5vbmNlIjoxMDA2MywiaXNEZWxldGVkIjpmYWxzZSwiZ3JvdXBJZHMiOltdLCJib3VuZEVsZW1lbnRzIjpudWxsLCJsaW5rIjpudWxsLCJsb2NrZWQiOmZhbHNlLCJzdHJva2VDb2xvciI6IiMxNTgwM2QiLCJiYWNrZ3JvdW5kQ29sb3IiOiJ0cmFuc3BhcmVudCIsImZpbGxTdHlsZSI6InNvbGlkIiwicG9pbnRzIjpbWzAsMF0sWzUwLDBdLFsxMDAsMF1dLCJzdGFydEJpbmRpbmciOm51bGwsImVuZEJpbmRpbmciOm51bGwsInN0YXJ0QXJyb3doZWFkIjpudWxsLCJlbmRBcnJvd2hlYWQiOiJ0cmlhbmdsZSJ9LHsidHlwZSI6InRleHQiLCJpZCI6ImFycm93XzVfbGFiZWwiLCJ4IjoxMzczLjUsInkiOjIxMCwid2lkdGgiOjczLCJoZWlnaHQiOjE4LCJhbmdsZSI6MCwic3Ryb2tlV2lkdGgiOjEsInN0cm9rZVN0eWxlIjoic29saWQiLCJyb3VnaG5lc3MiOjAsIm9wYWNpdHkiOjEwMCwic2VlZCI6MTAwNjQsInZlcnNpb24iOjEsInZlcnNpb25Ob25jZSI6MTAwNjUsImlzRGVsZXRlZCI6ZmFsc2UsImdyb3VwSWRzIjpbXSwiYm91bmRFbGVtZW50cyI6bnVsbCwibGluayI6bnVsbCwibG9ja2VkIjpmYWxzZSwidGV4dCI6ImRlbGl2ZXJlZCIsIm9yaWdpbmFsVGV4dCI6ImRlbGl2ZXJlZCIsImZvbnRTaXplIjoxMSwiZm9udEZhbWlseSI6MSwidGV4dEFsaWduIjoiY2VudGVyIiwidmVydGljYWxBbGlnbiI6InRvcCIsInN0cm9rZUNvbG9yIjoiIzE1ODAzZCIsImJhY2tncm91bmRDb2xvciI6InRyYW5zcGFyZW50IiwiZmlsbFN0eWxlIjoic29saWQiLCJjb250YWluZXJJZCI6bnVsbCwibGluZUhlaWdodCI6MS4yNX0seyJ0eXBlIjoiYXJyb3ciLCJpZCI6ImFycm93XzYiLCJ4IjoxNjA0LjQyNDc3ODc2MTA2MiwieSI6MjY3LCJ3aWR0aCI6MTcwLjU3NTIyMTIzODkzNzk2LCJoZWlnaHQiOjI4LjUsImFuZ2xlIjowLCJzdHJva2VXaWR0aCI6Miwic3Ryb2tlU3R5bGUiOiJzb2xpZCIsInJvdWdobmVzcyI6MSwib3BhY2l0eSI6MTAwLCJzZWVkIjoxMDA2NiwidmVyc2lvbiI6MSwidmVyc2lvbk5vbmNlIjoxMDA2NywiaXNEZWxldGVkIjpmYWxzZSwiZ3JvdXBJZHMiOltdLCJib3VuZEVsZW1lbnRzIjpudWxsLCJsaW5rIjpudWxsLCJsb2NrZWQiOmZhbHNlLCJzdHJva2VDb2xvciI6IiMwNDc4NTciLCJiYWNrZ3JvdW5kQ29sb3IiOiJ0cmFuc3BhcmVudCIsImZpbGxTdHlsZSI6InNvbGlkIiwicG9pbnRzIjpbWzAsMF0sWzY1LjYsMjguNV0sWzE3MC42LDI4LjVdXSwic3RhcnRCaW5kaW5nIjpudWxsLCJlbmRCaW5kaW5nIjpudWxsLCJzdGFydEFycm93aGVhZCI6bnVsbCwiZW5kQXJyb3doZWFkIjoidHJpYW5nbGUifSx7InR5cGUiOiJhcnJvdyIsImlkIjoiYXJyb3dfNyIsIngiOjMxMy41Mjk0MTE3NjQ3MDU4NiwieSI6MTUzLCJ3aWR0aCI6NjM2LjQ3MDU4ODIzNTI5NDEsImhlaWdodCI6MzYuMTUzODQ2MTUzODQ2MTYsImFuZ2xlIjowLCJzdHJva2VXaWR0aCI6Miwic3Ryb2tlU3R5bGUiOiJkYXNoZWQiLCJyb3VnaG5lc3MiOjEsIm9wYWNpdHkiOjEwMCwic2VlZCI6MTAwNjgsInZlcnNpb24iOjEsInZlcnNpb25Ob25jZSI6MTAwNjksImlzRGVsZXRlZCI6ZmFsc2UsImdyb3VwSWRzIjpbXSwiYm91bmRFbGVtZW50cyI6bnVsbCwibGluayI6bnVsbCwibG9ja2VkIjpmYWxzZSwic3Ryb2tlQ29sb3IiOiIjZGMyNjI2IiwiYmFja2dyb3VuZENvbG9yIjoidHJhbnNwYXJlbnQiLCJmaWxsU3R5bGUiOiJzb2xpZCIsInBvaW50cyI6W1swLDBdLFs3Ni41LC00MF0sWzIxMS41LC00MF0sWzM0Ni41LC00MF0sWzQ2Ni41LC00MF0sWzU4Ni41LC00MF0sWzYzNi41LC0zNi4yXV0sInN0YXJ0QmluZGluZyI6bnVsbCwiZW5kQmluZGluZyI6bnVsbCwic3RhcnRBcnJvd2hlYWQiOm51bGwsImVuZEFycm93aGVhZCI6InRyaWFuZ2xlIn0seyJ0eXBlIjoidGV4dCIsImlkIjoiYXJyb3dfN19sYWJlbCIsIngiOjYzNCwieSI6ODQsIndpZHRoIjo1MiwiaGVpZ2h0IjoxOCwiYW5nbGUiOjAsInN0cm9rZVdpZHRoIjoxLCJzdHJva2VTdHlsZSI6InNvbGlkIiwicm91Z2huZXNzIjowLCJvcGFjaXR5IjoxMDAsInNlZWQiOjEwMDcwLCJ2ZXJzaW9uIjoxLCJ2ZXJzaW9uTm9uY2UiOjEwMDcxLCJpc0RlbGV0ZWQiOmZhbHNlLCJncm91cElkcyI6W10sImJvdW5kRWxlbWVudHMiOm51bGwsImxpbmsiOm51bGwsImxvY2tlZCI6ZmFsc2UsInRleHQiOiJjYW5jZWwiLCJvcmlnaW5hbFRleHQiOiJjYW5jZWwiLCJmb250U2l6ZSI6MTEsImZvbnRGYW1pbHkiOjEsInRleHRBbGlnbiI6ImNlbnRlciIsInZlcnRpY2FsQWxpZ24iOiJ0b3AiLCJzdHJva2VDb2xvciI6IiNkYzI2MjYiLCJiYWNrZ3JvdW5kQ29sb3IiOiJ0cmFuc3BhcmVudCIsImZpbGxTdHlsZSI6InNvbGlkIiwiY29udGFpbmVySWQiOm51bGwsImxpbmVIZWlnaHQiOjEuMjV9LHsidHlwZSI6ImFycm93IiwiaWQiOiJhcnJvd184IiwieCI6ODM3LjkzMTAzNDQ4Mjc1ODYsInkiOjIwMSwid2lkdGgiOjExNi4yMzU2MzIxODM5MDgwMiwiaGVpZ2h0Ijo1MCwiYW5nbGUiOjAsInN0cm9rZVdpZHRoIjoyLCJzdHJva2VTdHlsZSI6ImRhc2hlZCIsInJvdWdobmVzcyI6MSwib3BhY2l0eSI6MTAwLCJzZWVkIjoxMDA3MiwidmVyc2lvbiI6MSwidmVyc2lvbk5vbmNlIjoxMDA3MywiaXNEZWxldGVkIjpmYWxzZSwiZ3JvdXBJZHMiOltdLCJib3VuZEVsZW1lbnRzIjpudWxsLCJsaW5rIjpudWxsLCJsb2NrZWQiOmZhbHNlLCJzdHJva2VDb2xvciI6IiNkYzI2MjYiLCJiYWNrZ3JvdW5kQ29sb3IiOiJ0cmFuc3BhcmVudCIsImZpbGxTdHlsZSI6InNvbGlkIiwicG9pbnRzIjpbWzAsMF0sWzYyLjEsLTMwXSxbMTE2LjIsLTUwXV0sInN0YXJ0QmluZGluZyI6bnVsbCwiZW5kQmluZGluZyI6bnVsbCwic3RhcnRBcnJvd2hlYWQiOm51bGwsImVuZEFycm93aGVhZCI6InRyaWFuZ2xlIn0seyJ0eXBlIjoidGV4dCIsImlkIjoiYXJyb3dfOF9sYWJlbCIsIngiOjg2NS4yOTY2MjY3ODkxOTQ1LCJ5IjoxNDMuOTkzMDIwOTQzMTYxMTMsIndpZHRoIjo1MiwiaGVpZ2h0IjoxOCwiYW5nbGUiOjAsInN0cm9rZVdpZHRoIjoxLCJzdHJva2VTdHlsZSI6InNvbGlkIiwicm91Z2huZXNzIjowLCJvcGFjaXR5IjoxMDAsInNlZWQiOjEwMDc0LCJ2ZXJzaW9uIjoxLCJ2ZXJzaW9uTm9uY2UiOjEwMDc1LCJpc0RlbGV0ZWQiOmZhbHNlLCJncm91cElkcyI6W10sImJvdW5kRWxlbWVudHMiOm51bGwsImxpbmsiOm51bGwsImxvY2tlZCI6ZmFsc2UsInRleHQiOiJjYW5jZWwiLCJvcmlnaW5hbFRleHQiOiJjYW5jZWwiLCJmb250U2l6ZSI6MTEsImZvbnRGYW1pbHkiOjEsInRleHRBbGlnbiI6ImNlbnRlciIsInZlcnRpY2FsQWxpZ24iOiJ0b3AiLCJzdHJva2VDb2xvciI6IiNkYzI2MjYiLCJiYWNrZ3JvdW5kQ29sb3IiOiJ0cmFuc3BhcmVudCIsImZpbGxTdHlsZSI6InNvbGlkIiwiY29udGFpbmVySWQiOm51bGwsImxpbmVIZWlnaHQiOjEuMjV9LHsidHlwZSI6ImFycm93IiwiaWQiOiJhcnJvd185IiwieCI6MTYwNC40MjQ3Nzg3NjEwNjIsInkiOjIxMSwid2lkdGgiOjExNS41NzUyMjEyMzg5Mzc5NiwiaGVpZ2h0IjoyOC41LCJhbmdsZSI6MCwic3Ryb2tlV2lkdGgiOjIsInN0cm9rZVN0eWxlIjoiZGFzaGVkIiwicm91Z2huZXNzIjoxLCJvcGFjaXR5IjoxMDAsInNlZWQiOjEwMDc2LCJ2ZXJzaW9uIjoxLCJ2ZXJzaW9uTm9uY2UiOjEwMDc3LCJpc0RlbGV0ZWQiOmZhbHNlLCJncm91cElkcyI6W10sImJvdW5kRWxlbWVudHMiOm51bGwsImxpbmsiOm51bGwsImxvY2tlZCI6ZmFsc2UsInN0cm9rZUNvbG9yIjoiI2MyNDEwYyIsImJhY2tncm91bmRDb2xvciI6InRyYW5zcGFyZW50IiwiZmlsbFN0eWxlIjoic29saWQiLCJwb2ludHMiOltbMCwwXSxbNjUuNiwtMjguNV0sWzExNS42LC0yOC41XV0sInN0YXJ0QmluZGluZyI6bnVsbCwiZW5kQmluZGluZyI6bnVsbCwic3RhcnRBcnJvd2hlYWQiOm51bGwsImVuZEFycm93aGVhZCI6InRyaWFuZ2xlIn0seyJ0eXBlIjoidGV4dCIsImlkIjoiYXJyb3dfOV9sYWJlbCIsIngiOjE2MTguNTI4MDU3NTEzMTY1MywieSI6MTU1LjE1NzQ3NzQ2MzkyMDEsIndpZHRoIjo4NywiaGVpZ2h0IjoxOCwiYW5nbGUiOjAsInN0cm9rZVdpZHRoIjoxLCJzdHJva2VTdHlsZSI6InNvbGlkIiwicm91Z2huZXNzIjowLCJvcGFjaXR5IjoxMDAsInNlZWQiOjEwMDc4LCJ2ZXJzaW9uIjoxLCJ2ZXJzaW9uTm9uY2UiOjEwMDc5LCJpc0RlbGV0ZWQiOmZhbHNlLCJncm91cElkcyI6W10sImJvdW5kRWxlbWVudHMiOm51bGwsImxpbmsiOm51bGwsImxvY2tlZCI6ZmFsc2UsInRleHQiOiJyZWZ1bmQgcmVxLiIsIm9yaWdpbmFsVGV4dCI6InJlZnVuZCByZXEuIiwiZm9udFNpemUiOjExLCJmb250RmFtaWx5IjoxLCJ0ZXh0QWxpZ24iOiJjZW50ZXIiLCJ2ZXJ0aWNhbEFsaWduIjoidG9wIiwic3Ryb2tlQ29sb3IiOiIjYzI0MTBjIiwiYmFja2dyb3VuZENvbG9yIjoidHJhbnNwYXJlbnQiLCJmaWxsU3R5bGUiOiJzb2xpZCIsImNvbnRhaW5lcklkIjpudWxsLCJsaW5lSGVpZ2h0IjoxLjI1fV0sImFwcFN0YXRlIjp7InZpZXdCYWNrZ3JvdW5kQ29sb3IiOiIjZmZmZmZmIiwiZ3JpZFNpemUiOjIwfSwiZmlsZXMiOnt9LCJfbWV0YSI6eyJuYW1lIjoic3RhdGUtZGlhZ3JhbSIsImNyZWF0ZWQiOjE3NzM3OTk0MDMuMTgxNTczMiwibW9kaWZpZWQiOjE3NzM3OTk0MDMuMTgxNTczOX19"/></metadata></svg>